<svg width="28" height="28" viewBox="0 0 28 28" fill="none" xmlns="http://www.w3.org/2000/svg">
<g filter="url(#filter0_i_176_18880)">
<path d="M3.5 22.4H24.5V24.5H3.5V22.4ZM5.6 14H7.7V21.35H5.6V14ZM10.85 14H12.95V21.35H10.85V14ZM15.05 14H17.15V21.35H15.05V14ZM20.3 14H22.4V21.35H20.3V14ZM3.5 8.75L14 3.5L24.5 8.75V12.95H3.5V8.75ZM14 9.8C14.2785 9.8 14.5455 9.68937 14.7425 9.49246C14.9394 9.29555 15.05 9.02848 15.05 8.75C15.05 8.47152 14.9394 8.20445 14.7425 8.00754C14.5455 7.81062 14.2785 7.7 14 7.7C13.7215 7.7 13.4545 7.81062 13.2575 8.00754C13.0606 8.20445 12.95 8.47152 12.95 8.75C12.95 9.02848 13.0606 9.29555 13.2575 9.49246C13.4545 9.68937 13.7215 9.8 14 9.8V9.8Z" fill="#00B481"/>
</g>
<defs>
<filter id="filter0_i_176_18880" x="3.5" y="1.5" width="21" height="23" filterUnits="userSpaceOnUse" color-interpolation-filters="sRGB">
<feFlood flood-opacity="0" result="BackgroundImageFix"/>
<feBlend mode="normal" in="SourceGraphic" in2="BackgroundImageFix" result="shape"/>
<feColorMatrix in="SourceAlpha" type="matrix" values="0 0 0 0 0 0 0 0 0 0 0 0 0 0 0 0 0 0 127 0" result="hardAlpha"/>
<feOffset dy="-2"/>
<feGaussianBlur stdDeviation="2"/>
<feComposite in2="hardAlpha" operator="arithmetic" k2="-1" k3="1"/>
<feColorMatrix type="matrix" values="0 0 0 0 1 0 0 0 0 1 0 0 0 0 1 0 0 0 0.24 0"/>
<feBlend mode="plus-lighter" in2="shape" result="effect1_innerShadow_176_18880"/>
</filter>
</defs>
</svg>
