<svg width="24" height="24" viewBox="0 0 24 24" fill="none" xmlns="http://www.w3.org/2000/svg">
<path d="M13.8003 3C15.4472 2.99921 17.0447 3.5631 18.3262 4.59761C19.6078 5.63213 20.4959 7.07473 20.8425 8.68482C21.1891 10.2949 20.9732 11.9752 20.2308 13.4453C19.4884 14.9155 18.2645 16.0868 16.7631 16.7637C16.2831 17.8247 15.553 18.7535 14.6353 19.4704C13.7176 20.1873 12.6398 20.6709 11.4941 20.8797C10.3485 21.0885 9.16931 21.0164 8.05769 20.6694C6.94607 20.3225 5.93519 19.711 5.11176 18.8876C4.28833 18.0642 3.67691 17.0533 3.32994 15.9417C2.98298 14.8301 2.91082 13.6509 3.11965 12.5052C3.32849 11.3596 3.81209 10.2817 4.52897 9.36402C5.24586 8.44633 6.17464 7.71622 7.23566 7.2363C7.80639 5.9735 8.72929 4.90215 9.89367 4.15075C11.0581 3.39934 12.4145 2.99979 13.8003 3ZM10.2003 8.4C9.49112 8.4 8.78893 8.53968 8.13377 8.81105C7.47861 9.08243 6.88332 9.48019 6.38188 9.98162C5.88045 10.4831 5.48269 11.0784 5.21131 11.7335C4.93994 12.3887 4.80026 13.0909 4.80026 13.8C4.80026 14.5091 4.93994 15.2113 5.21131 15.8665C5.48269 16.5217 5.88045 17.1169 6.38188 17.6184C6.88332 18.1198 7.47861 18.5176 8.13377 18.789C8.78893 19.0603 9.49112 19.2 10.2003 19.2C11.6324 19.2 13.0059 18.6311 14.0186 17.6184C15.0313 16.6057 15.6003 15.2322 15.6003 13.8C15.6003 12.3678 15.0313 10.9943 14.0186 9.98162C13.0059 8.96893 11.6324 8.4 10.2003 8.4ZM11.1003 9.3V10.2H12.9003V12H9.30026C9.18781 11.9998 9.07936 12.0417 8.99626 12.1175C8.91316 12.1932 8.86143 12.2973 8.85127 12.4093C8.84111 12.5213 8.87325 12.6331 8.94136 12.7225C9.00947 12.812 9.10861 12.8728 9.21926 12.8928L9.30026 12.9H11.1003C11.697 12.9 12.2693 13.1371 12.6913 13.559C13.1132 13.981 13.3503 14.5533 13.3503 15.15C13.3503 15.7467 13.1132 16.319 12.6913 16.741C12.2693 17.1629 11.697 17.4 11.1003 17.4V18.3H9.30026V17.4H7.50026V15.6H11.1003C11.2127 15.6002 11.3212 15.5583 11.4043 15.4825C11.4874 15.4068 11.5391 15.3027 11.5492 15.1907C11.5594 15.0787 11.5273 14.9669 11.4592 14.8775C11.3911 14.788 11.2919 14.7272 11.1813 14.7072L11.1003 14.7H9.30026C8.70352 14.7 8.13123 14.4629 7.70927 14.041C7.28731 13.619 7.05026 13.0467 7.05026 12.45C7.05026 11.8533 7.28731 11.281 7.70927 10.859C8.13123 10.4371 8.70352 10.2 9.30026 10.2V9.3H11.1003ZM13.8003 4.8C13.0377 4.79911 12.2836 4.96015 11.5879 5.27247C10.8922 5.58478 10.2708 6.04126 9.76466 6.6117C10.7819 6.54995 11.8007 6.70485 12.7536 7.06615C13.7065 7.42746 14.5718 7.98694 15.2924 8.7076C16.013 9.42826 16.5724 10.2937 16.9336 11.2466C17.2948 12.1996 17.4495 13.2184 17.3877 14.2356C18.206 13.5081 18.7837 12.549 19.0444 11.4855C19.3051 10.422 19.2363 9.30442 18.8471 8.28095C18.458 7.25748 17.7669 6.37648 16.8656 5.75479C15.9643 5.13311 14.8952 4.80013 13.8003 4.8Z" fill="#525866"/>
</svg>
