<svg width="14" height="14" viewBox="0 0 14 14" fill="none" xmlns="http://www.w3.org/2000/svg">
<path d="M7 1.76538C7.14449 1.76538 7.28534 1.81342 7.39941 1.9021L11.5996 5.1687C11.6777 5.22944 11.7407 5.30739 11.7842 5.39624C11.8277 5.48523 11.8507 5.58332 11.8506 5.68237V11.2C11.8506 11.3723 11.7821 11.538 11.6602 11.6599C11.5383 11.7818 11.3726 11.8503 11.2002 11.8503H2.80078C2.62846 11.8503 2.4627 11.7817 2.34082 11.6599C2.21892 11.538 2.15039 11.3723 2.15039 11.2V5.68237L2.1543 5.60815C2.16267 5.53479 2.18422 5.46291 2.2168 5.39624C2.26027 5.30743 2.32331 5.22942 2.40137 5.1687L6.60156 1.9021C6.71551 1.81356 6.8557 1.76547 7 1.76538Z" fill="white" stroke="white" stroke-width="0.25" stroke-linejoin="round"/>
</svg>
