<svg width="32" height="32" viewBox="0 0 32 32" fill="none" xmlns="http://www.w3.org/2000/svg">
<path d="M14.5095 15.7938L23.9283 6.375L25.6251 8.0718L23.9283 9.7698L26.8971 12.7386L25.2003 14.4366L22.2303 11.4666L20.5335 13.1634L23.0787 15.7086L21.3819 17.4066L18.8367 14.8602L16.2063 17.4906C17.0229 18.7314 17.3504 20.2309 17.1254 21.6991C16.9005 23.1674 16.1392 24.5001 14.9887 25.4396C13.8381 26.379 12.3801 26.8585 10.8966 26.7854C9.41299 26.7122 8.00925 26.0915 6.95675 25.0434C5.90198 23.9926 5.27558 22.5871 5.19929 21.1002C5.12301 19.6133 5.60228 18.1511 6.54396 16.9979C7.48565 15.8447 8.82247 15.0827 10.2946 14.8602C11.7668 14.6377 13.2691 14.9704 14.5095 15.7938V15.7938ZM13.7451 23.3454C14.0947 23.0147 14.3745 22.6174 14.5678 22.1767C14.7612 21.7361 14.8643 21.2612 14.871 20.7801C14.8777 20.2989 14.7878 19.8213 14.6068 19.3755C14.4258 18.9297 14.1572 18.5247 13.8169 18.1844C13.4767 17.8442 13.0717 17.5756 12.6258 17.3945C12.18 17.2135 11.7024 17.1237 11.2213 17.1304C10.7401 17.1371 10.2652 17.2401 9.8246 17.4335C9.38399 17.6269 8.9866 17.9066 8.65595 18.2562C8.00018 18.9352 7.63732 19.8445 7.64552 20.7884C7.65372 21.7324 8.03233 22.6353 8.6998 23.3027C9.36727 23.9702 10.2702 24.3488 11.2141 24.357C12.158 24.3652 13.0674 24.0024 13.7463 23.3466L13.7451 23.3454Z" fill="#A4A4A4"/>
</svg>
