<svg width="32" height="32" viewBox="0 0 32 32" fill="none" xmlns="http://www.w3.org/2000/svg">
<path d="M23.6371 20.2433L21.9403 18.5441L23.6371 16.8473C24.1983 16.291 24.644 15.6294 24.9488 14.9004C25.2536 14.1714 25.4113 13.3894 25.4131 12.5992C25.4148 11.8091 25.2604 11.0264 24.9589 10.2961C24.6573 9.56575 24.2144 8.90218 23.6557 8.34346C23.097 7.78475 22.4334 7.34189 21.7031 7.04031C20.9728 6.73874 20.1901 6.58439 19.3999 6.58612C18.6098 6.58785 17.8278 6.74563 17.0988 7.0504C16.3698 7.35517 15.7082 7.80093 15.1519 8.36208L13.4551 10.0601L11.7571 8.36328L13.4563 6.66648C15.0317 5.0911 17.1684 4.20605 19.3963 4.20605C21.6242 4.20605 23.7609 5.0911 25.3363 6.66648C26.9117 8.24187 27.7967 10.3786 27.7967 12.6065C27.7967 14.8344 26.9117 16.9711 25.3363 18.5465L23.6383 20.2433H23.6371ZM20.2435 23.6369L18.5455 25.3337C16.9701 26.9091 14.8334 27.7941 12.6055 27.7941C10.3776 27.7941 8.24089 26.9091 6.66551 25.3337C5.09012 23.7583 4.20508 21.6216 4.20508 19.3937C4.20508 17.1657 5.09012 15.0291 6.66551 13.4537L8.36351 11.7569L10.0603 13.4561L8.36351 15.1529C7.80235 15.7091 7.35659 16.3708 7.05182 17.0998C6.74705 17.8288 6.58927 18.6108 6.58754 19.4009C6.58581 20.1911 6.74016 20.9738 7.04174 21.7041C7.34331 22.4344 7.78617 23.098 8.34489 23.6567C8.9036 24.2154 9.56717 24.6583 10.2975 24.9599C11.0278 25.2614 11.8105 25.4158 12.6007 25.414C13.3908 25.4123 14.1728 25.2545 14.9018 24.9498C15.6308 24.645 16.2924 24.1992 16.8487 23.6381L18.5455 21.9413L20.2435 23.6381V23.6369ZM19.3939 10.9085L21.0919 12.6065L12.6067 21.0905L10.9087 19.3937L19.3939 10.9097V10.9085Z" fill="#A4A4A4"/>
</svg>
