<svg width="126" height="42" viewBox="0 0 126 42" fill="none" xmlns="http://www.w3.org/2000/svg">
<g clip-path="url(#clip0_176_18327)">
<path d="M16.3271 20.9922C16.3271 24.8571 17.9359 28.5808 20.7649 31.2332C21.6242 29.7775 21.9028 27.9451 21.3967 26.0931C20.6982 23.5269 18.6814 21.6239 16.3271 20.9922Z" fill="#99A0AE"/>
<path d="M17.0499 16.5879C16.7006 17.6356 16.477 18.7028 16.3828 19.7622C19.6435 20.0879 22.4097 23.843 22.7315 28.6064C22.8256 29.9954 22.6962 31.3256 22.394 32.5341C23.1278 33.0403 23.9204 33.4758 24.7679 33.8446C25.2152 31.6238 25.1995 29.1675 24.6266 26.6877C23.5084 21.8418 20.5459 18.126 17.0499 16.584V16.5879Z" fill="#99A0AE"/>
<path d="M32.1491 14.2592C35.6884 15.0557 39.157 14.5299 41.8448 13.0428C41.3425 12.313 40.7696 11.6303 40.1301 11.0064C37.6973 12.9644 33.6088 13.3646 29.6968 11.7362C27.6564 10.8887 25.9731 9.61347 24.7803 8.1499C24.4075 8.31078 24.0387 8.48735 23.6816 8.68353C25.4473 11.3282 28.4529 13.4274 32.1491 14.2592Z" fill="#99A0AE"/>
<path d="M44.1742 23.0767C44.288 22.3115 44.339 21.5425 44.3273 20.7812C41.4041 21.7033 38.6339 23.8496 36.7701 26.9612C35.3536 29.3272 34.6748 31.8894 34.6787 34.3065C35.0083 34.2005 35.3301 34.0828 35.6518 33.9533C35.9422 31.7521 37.1075 29.233 39.0459 26.9886C40.6036 25.1837 42.4125 23.8496 44.1742 23.0806V23.0767Z" fill="#99A0AE"/>
<path d="M42.9628 14.9823C39.0155 16.7872 32.9769 16.6106 26.9931 14.123C24.7095 13.1734 22.6613 11.9806 20.9152 10.6426C19.7773 11.6745 18.7964 12.9027 18.0352 14.3113C22.5553 16.2143 26.2515 23.2065 26.8283 31.7681C26.8911 32.7216 26.9146 33.6594 26.8989 34.5776C28.8255 35.068 30.7835 35.1269 32.663 34.8051C32.9455 30.8657 34.9662 26.216 38.5172 22.1078C40.1691 20.1969 41.9819 18.6 43.8378 17.3483C43.6181 16.5361 43.3278 15.7435 42.9628 14.9823ZM30.7678 26.0434C25.1411 26.0434 25.1489 17.313 30.7678 17.313C36.3866 17.313 36.3866 26.0434 30.7678 26.0434Z" fill="#99A0AE"/>
<path d="M32.8094 11.5901C35.046 12.0021 37.3021 11.3704 39.0443 10.0441C38.0516 9.25546 36.9372 8.58449 35.7052 8.0744C33.0409 6.9679 30.2276 6.74424 27.5908 7.27395C28.3991 9.4438 30.2904 11.1271 32.8094 11.5901Z" fill="#99A0AE"/>
<path d="M43.4034 25.9844C41.3473 26.31 39.3109 27.6834 38.0121 29.8454C37.3255 30.9911 36.941 32.2114 36.8232 33.4003C39.6209 31.9367 41.9438 29.5197 43.2504 26.3768C43.3053 26.2473 43.3524 26.1139 43.4034 25.9844Z" fill="#99A0AE"/>
</g>
<path d="M99.6172 28.046L103.47 22.7203L99.6952 17.5117H102.465L104.836 20.8768L107.167 17.5117H109.937L106.162 22.7203L110.034 28.046H107.264L104.836 24.5638L102.387 28.046H99.6172Z" fill="#99A0AE"/>
<path d="M94.2192 28.3392C93.1527 28.3392 92.2164 28.1084 91.41 27.6467C90.6037 27.185 89.9729 26.5445 89.5178 25.7252C89.0691 24.9059 88.8447 23.963 88.8447 22.8965C88.8447 21.7456 89.0658 20.7474 89.508 19.9021C89.9502 19.0502 90.5647 18.3902 91.3515 17.922C92.1383 17.4538 93.0487 17.2197 94.0826 17.2197C95.1751 17.2197 96.1017 17.4766 96.8625 17.9903C97.6298 18.4975 98.1988 19.216 98.5694 20.1459C98.9401 21.0758 99.0799 22.1715 98.9889 23.433H96.6577V22.5747C96.6512 21.4302 96.4496 20.5946 96.0529 20.0679C95.6563 19.5412 95.032 19.2778 94.1801 19.2778C93.2178 19.2778 92.5025 19.5769 92.0343 20.1752C91.5661 20.7669 91.332 21.635 91.332 22.7795C91.332 23.8459 91.5661 24.6718 92.0343 25.257C92.5025 25.8422 93.1852 26.1349 94.0826 26.1349C94.6613 26.1349 95.1588 26.0081 95.575 25.7544C95.9976 25.4943 96.3228 25.1204 96.5504 24.6327L98.8718 25.335C98.4686 26.2844 97.8444 27.0225 96.999 27.5492C96.1602 28.0759 95.2336 28.3392 94.2192 28.3392ZM90.5907 23.433V21.6578H97.8379V23.433H90.5907Z" fill="#99A0AE"/>
<path d="M87.7031 28.0474C87.0074 28.1774 86.3246 28.2327 85.6548 28.2132C84.9915 28.2002 84.3965 28.0799 83.8698 27.8523C83.3431 27.6182 82.9432 27.2508 82.6701 26.7501C82.4295 26.2949 82.3027 25.83 82.2897 25.3553C82.2767 24.8806 82.2702 24.3441 82.2702 23.7459V14.5869H84.6111V23.6093C84.6111 24.032 84.6144 24.4027 84.6209 24.7213C84.6339 25.0399 84.7022 25.3 84.8257 25.5016C85.0598 25.8918 85.4337 26.1096 85.9474 26.1551C86.4611 26.2006 87.0464 26.1746 87.7031 26.0771V28.0474ZM80.3584 19.3566V17.5131H87.7031V19.3566H80.3584Z" fill="#99A0AE"/>
<path d="M73.7344 28.0453V17.511H75.812V20.0763L75.5584 19.7447C75.6884 19.3935 75.8607 19.0749 76.0753 18.7888C76.2964 18.4962 76.5598 18.2556 76.8654 18.067C77.1255 17.8914 77.4116 17.7549 77.7237 17.6573C78.0424 17.5533 78.3675 17.4915 78.6991 17.472C79.0308 17.446 79.3527 17.459 79.6648 17.511V19.7056C79.3527 19.6146 78.9918 19.5854 78.5821 19.6179C78.1789 19.6504 77.8148 19.7642 77.4897 19.9593C77.1645 20.1348 76.8979 20.3592 76.6898 20.6323C76.4882 20.9054 76.3387 21.2175 76.2411 21.5687C76.1436 21.9133 76.0948 22.2872 76.0948 22.6904V28.0453H73.7344Z" fill="#99A0AE"/>
<path d="M66.3307 28.3392C65.2772 28.3392 64.3571 28.1019 63.5703 27.6272C62.7835 27.1525 62.1722 26.499 61.7365 25.6667C61.3074 24.8278 61.0928 23.8654 61.0928 22.7795C61.0928 21.674 61.3139 20.7051 61.756 19.8728C62.1982 19.0405 62.8127 18.3902 63.5995 17.922C64.3864 17.4538 65.2967 17.2197 66.3307 17.2197C67.3906 17.2197 68.314 17.4571 69.1008 17.9318C69.8876 18.4065 70.4989 19.0632 70.9345 19.9021C71.3702 20.7344 71.588 21.6935 71.588 22.7795C71.588 23.8719 71.367 24.8376 70.9248 25.6764C70.4891 26.5088 69.8778 27.1623 69.091 27.637C68.3042 28.1052 67.3841 28.3392 66.3307 28.3392ZM66.3307 26.1349C67.267 26.1349 67.9628 25.8227 68.418 25.1985C68.8732 24.5742 69.1008 23.7679 69.1008 22.7795C69.1008 21.7586 68.8699 20.9457 68.4083 20.341C67.9466 19.7297 67.254 19.4241 66.3307 19.4241C65.6999 19.4241 65.1797 19.5672 64.77 19.8533C64.3669 20.1329 64.0677 20.5263 63.8727 21.0335C63.6776 21.5342 63.58 22.1162 63.58 22.7795C63.58 23.8004 63.8109 24.6165 64.2726 25.2277C64.7408 25.8325 65.4268 26.1349 66.3307 26.1349Z" fill="#99A0AE"/>
<path d="M53.5045 28.0452L49.0762 13.9995H51.4952L55.2017 25.7628L58.9569 13.9995H61.3759L56.9476 28.0452H53.5045Z" fill="#99A0AE"/>
<defs>
<clipPath id="clip0_176_18327">
<rect width="28" height="28" fill="white" transform="translate(16.3262 7)"/>
</clipPath>
</defs>
</svg>
