<svg width="126" height="42" viewBox="0 0 126 42" fill="none" xmlns="http://www.w3.org/2000/svg">
<g clip-path="url(#clip0_176_18393)">
<path d="M24.2086 34.925C24.1554 34.9649 24.0769 34.9162 24.0756 34.8498C23.8935 25.4743 16.6761 17.2291 6.1873 16.7926C6.04981 16.7869 5.96744 16.617 6.06475 16.5197C9.17074 13.4137 12.2767 10.3078 15.375 7.19408C15.5518 7.01726 15.7056 6.96344 15.9439 7.02495C24.1164 9.13148 29.9593 13.8904 32.9654 21.886C33.3421 22.8855 33.565 23.9464 33.8418 24.9843C33.8725 25.0996 33.8264 25.2995 33.7418 25.3841C30.5667 28.567 27.3915 31.7498 24.2086 34.925Z" fill="#99A0AE"/>
<path d="M5.96191 21.0019C6.72303 20.2023 7.48415 19.3797 8.28371 18.5878C8.39904 18.4725 8.69118 18.4802 8.88339 18.5186C10.6055 18.8415 12.2354 19.4566 13.773 20.2946C18.4474 22.8701 21.2535 26.8141 22.3529 32.0112C22.4144 32.3034 22.3606 32.5033 22.1453 32.7262C21.4073 33.4489 20.6923 34.2023 19.9619 34.9481C19.9465 34.9634 19.9235 34.9711 19.8697 35.0019C19.7082 31.1963 18.5242 27.8135 15.7642 25.1227C13.0196 22.4472 9.66757 21.1941 5.96191 21.0019Z" fill="#99A0AE"/>
<path d="M15.6304 34.9877C15.4305 28.6604 10.3564 25.3161 5.82812 25.2238C5.95113 25.0931 6.02802 24.9932 6.12027 24.9009C6.75069 24.2859 7.39649 23.6785 8.01154 23.0404C8.26525 22.7713 8.50358 22.7098 8.84954 22.8098C13.4086 24.0937 16.4531 26.946 17.9292 31.4742C18.1598 32.1969 18.1137 32.6966 17.4986 33.1964C16.8375 33.7268 16.2609 34.3726 15.6304 34.9877Z" fill="#99A0AE"/>
<path d="M11.4157 34.9229C11.2235 31.7016 8.84784 29.6258 5.8418 29.4259C5.92637 29.326 5.99556 29.2414 6.06475 29.1645C6.72593 28.5187 7.3871 27.8806 8.04059 27.2271C8.20973 27.0503 8.3558 27.0272 8.57875 27.1118C11.1466 28.0421 12.8226 29.8488 13.7682 32.3704C13.8067 32.4627 13.7913 32.6395 13.7298 32.701C12.9533 33.4545 12.1768 34.1925 11.4157 34.9229Z" fill="#99A0AE"/>
</g>
<path d="M119.608 27.7134V21.9616C119.608 21.3128 119.447 20.8072 119.126 20.4448C118.804 20.0765 118.369 19.8924 117.82 19.8924C117.481 19.8924 117.177 19.9713 116.908 20.1291C116.639 20.2811 116.425 20.5091 116.268 20.813C116.11 21.1112 116.031 21.4677 116.031 21.8827L115.093 21.3303C115.087 20.6757 115.233 20.0999 115.531 19.6031C115.835 19.1004 116.244 18.7088 116.759 18.4282C117.273 18.1476 117.846 18.0073 118.477 18.0073C119.523 18.0073 120.324 18.323 120.88 18.9543C121.441 19.5797 121.721 20.4039 121.721 21.4268V27.7134H119.608ZM108.219 27.7134V18.2441H110.086V21.1813H110.349V27.7134H108.219ZM113.927 27.7134V21.9879C113.927 21.3274 113.766 20.813 113.444 20.4448C113.123 20.0765 112.685 19.8924 112.129 19.8924C111.591 19.8924 111.159 20.0765 110.832 20.4448C110.51 20.813 110.349 21.2924 110.349 21.8827L109.402 21.2514C109.402 20.6377 109.554 20.0853 109.858 19.5943C110.162 19.1033 110.571 18.7175 111.086 18.4369C111.606 18.1505 112.188 18.0073 112.831 18.0073C113.538 18.0073 114.128 18.1593 114.602 18.4633C115.081 18.7614 115.438 19.1705 115.671 19.6908C115.911 20.2051 116.031 20.7867 116.031 21.4356V27.7134H113.927Z" fill="#99A0AE"/>
<path d="M100.807 27.9877C100.106 27.9877 99.5273 27.8708 99.0714 27.637C98.6154 27.4032 98.253 27.1051 97.9841 26.7427C97.7153 26.3802 97.5165 25.9945 97.3879 25.5853C97.2593 25.1761 97.1746 24.7903 97.1337 24.4279C97.0986 24.0597 97.0811 23.7616 97.0811 23.5336V18.2466H99.2204V22.8059C99.2204 23.0981 99.2409 23.4284 99.2818 23.7966C99.3227 24.1591 99.4162 24.5098 99.5624 24.8488C99.7143 25.182 99.9365 25.4567 100.229 25.673C100.527 25.8892 100.927 25.9974 101.43 25.9974C101.699 25.9974 101.965 25.9535 102.228 25.8659C102.491 25.7782 102.728 25.6291 102.938 25.4187C103.154 25.2024 103.327 24.9072 103.455 24.5331C103.584 24.1591 103.648 23.6856 103.648 23.1128L104.902 23.6476C104.902 24.4542 104.744 25.1849 104.429 25.8396C104.119 26.4942 103.66 27.0174 103.052 27.409C102.444 27.7948 101.696 27.9877 100.807 27.9877ZM103.902 27.7159V24.7786H103.648V18.2466H105.77V27.7159H103.902Z" fill="#99A0AE"/>
<path d="M90.2539 27.7167V18.2474H92.1215V20.5534L91.8935 20.2553C92.0104 19.9396 92.1653 19.6532 92.3582 19.396C92.5569 19.133 92.7937 18.9167 93.0684 18.7472C93.3022 18.5894 93.5594 18.4666 93.84 18.379C94.1264 18.2854 94.4186 18.2299 94.7168 18.2124C95.0149 18.189 95.3042 18.2007 95.5848 18.2474V20.2202C95.3042 20.1384 94.9798 20.1121 94.6115 20.1413C94.2491 20.1705 93.9218 20.2728 93.6295 20.4482C93.3373 20.606 93.0976 20.8077 92.9106 21.0532C92.7294 21.2987 92.5949 21.5792 92.5072 21.8949C92.4196 22.2047 92.3757 22.5408 92.3757 22.9032V27.7167H90.2539Z" fill="#99A0AE"/>
<path d="M88.2145 27.7164C87.5891 27.8333 86.9753 27.883 86.3733 27.8654C85.777 27.8537 85.2422 27.7456 84.7687 27.541C84.2953 27.3306 83.9358 27.0003 83.6903 26.5502C83.474 26.1411 83.36 25.7231 83.3483 25.2964C83.3367 24.8697 83.3308 24.3875 83.3308 23.8497V15.6167H85.4351V23.727C85.4351 24.1069 85.438 24.4401 85.4439 24.7265C85.4556 25.0129 85.5169 25.2467 85.628 25.4279C85.8384 25.7787 86.1745 25.9745 86.6363 26.0154C87.0981 26.0563 87.6241 26.0329 88.2145 25.9453V27.7164ZM81.6123 19.9042V18.2471H88.2145V19.9042H81.6123Z" fill="#99A0AE"/>
<path d="M76.6948 27.9783C75.7187 27.9783 74.8857 27.762 74.196 27.3295C73.5063 26.8911 72.9773 26.2949 72.609 25.5408C72.2466 24.7868 72.0625 23.9334 72.0566 22.9806C72.0625 22.0103 72.2525 21.151 72.6266 20.4028C73.0065 19.6488 73.5443 19.0584 74.2398 18.6317C74.9354 18.1992 75.7625 17.9829 76.7211 17.9829C77.7967 17.9829 78.7056 18.2547 79.448 18.7983C80.1961 19.3361 80.6842 20.0726 80.9122 21.0078L78.8079 21.5777C78.6442 21.0692 78.3724 20.6746 77.9925 20.3941C77.6125 20.1077 77.18 19.9644 76.6948 19.9644C76.1454 19.9644 75.6924 20.096 75.3358 20.359C74.9793 20.6162 74.7162 20.9728 74.5467 21.4287C74.3772 21.8846 74.2924 22.4019 74.2924 22.9806C74.2924 23.8808 74.4941 24.6085 74.8974 25.1638C75.3008 25.7191 75.8999 25.9967 76.6948 25.9967C77.256 25.9967 77.6973 25.8682 78.0188 25.611C78.3461 25.3538 78.5916 24.9826 78.7553 24.4974L80.9122 24.9797C80.6199 25.9441 80.1085 26.6865 79.3778 27.2067C78.6472 27.7211 77.7528 27.9783 76.6948 27.9783Z" fill="#99A0AE"/>
<path d="M66.334 27.9783C65.3754 27.9783 64.5337 27.7708 63.8089 27.3558C63.0841 26.9408 62.5171 26.365 62.1079 25.6285C61.7046 24.892 61.5029 24.0444 61.5029 23.0858C61.5029 22.0512 61.7017 21.154 62.0991 20.3941C62.4966 19.6283 63.049 19.0351 63.7563 18.6142C64.4635 18.1933 65.2819 17.9829 66.2113 17.9829C67.1933 17.9829 68.0262 18.2138 68.7101 18.6756C69.3999 19.1315 69.9113 19.7774 70.2445 20.6133C70.5777 21.4491 70.7034 22.4341 70.6215 23.568H68.526V22.7965C68.5202 21.7677 68.3389 21.0166 67.9824 20.5431C67.6258 20.0697 67.0647 19.8329 66.299 19.8329C65.4339 19.8329 64.7909 20.1018 64.37 20.6396C63.9492 21.1715 63.7387 21.9518 63.7387 22.9806C63.7387 23.9392 63.9492 24.6816 64.37 25.2076C64.7909 25.7337 65.4046 25.9967 66.2113 25.9967C66.7315 25.9967 67.1787 25.8828 67.5528 25.6548C67.9327 25.421 68.225 25.0849 68.4295 24.6465L70.5163 25.2778C70.1539 26.1312 69.5928 26.7946 68.8329 27.2681C68.0788 27.7416 67.2459 27.9783 66.334 27.9783ZM63.0724 23.568V21.9723H69.5869V23.568H63.0724Z" fill="#99A0AE"/>
<path d="M55.777 27.9783C54.8535 27.9783 54.079 27.7591 53.4536 27.3207C52.8281 26.8823 52.3576 26.2861 52.0419 25.532C51.7263 24.7722 51.5685 23.9217 51.5685 22.9806C51.5685 22.0278 51.7263 21.1744 52.0419 20.4204C52.3576 19.6663 52.8194 19.073 53.4273 18.6405C54.041 18.2021 54.798 17.9829 55.6981 17.9829C56.5925 17.9829 57.367 18.2021 58.0216 18.6405C58.6821 19.073 59.1936 19.6663 59.556 20.4204C59.9184 21.1686 60.0996 22.022 60.0996 22.9806C60.0996 23.9275 59.9213 24.778 59.5648 25.532C59.2082 26.2861 58.7055 26.8823 58.0567 27.3207C57.4079 27.7591 56.648 27.9783 55.777 27.9783ZM51.209 31.9238V18.2459H53.0765V24.892H53.3396V31.9238H51.209ZM55.4526 26.0844C56.0021 26.0844 56.4551 25.9471 56.8117 25.6723C57.1682 25.3976 57.4313 25.0264 57.6008 24.5588C57.7761 24.0854 57.8638 23.5593 57.8638 22.9806C57.8638 22.4078 57.7761 21.8875 57.6008 21.4199C57.4254 20.9465 57.1536 20.5724 56.7854 20.2976C56.4171 20.0171 55.9495 19.8768 55.3825 19.8768C54.8447 19.8768 54.4063 20.0083 54.0673 20.2713C53.7283 20.5285 53.4769 20.8909 53.3133 21.3585C53.1555 21.8203 53.0765 22.361 53.0765 22.9806C53.0765 23.5943 53.1555 24.135 53.3133 24.6027C53.4769 25.0703 53.7312 25.4356 54.0761 25.6986C54.4268 25.9558 54.8856 26.0844 55.4526 26.0844Z" fill="#99A0AE"/>
<path d="M44.376 27.9777C43.4525 27.9777 42.6195 27.817 41.8772 27.4955C41.1407 27.174 40.5328 26.7151 40.0535 26.1189C39.58 25.5169 39.279 24.8038 39.1504 23.9796L41.3424 23.6464C41.5294 24.3946 41.9123 24.9733 42.491 25.3824C43.0755 25.7916 43.7477 25.9962 44.5076 25.9962C44.9576 25.9962 45.3814 25.926 45.7789 25.7858C46.1764 25.6455 46.4979 25.4409 46.7434 25.172C46.9947 24.9031 47.1204 24.5729 47.1204 24.1812C47.1204 24.0059 47.0912 23.8451 47.0327 23.699C46.9743 23.547 46.8866 23.4126 46.7697 23.2957C46.6586 23.1788 46.5125 23.0736 46.3313 22.98C46.1559 22.8807 45.9513 22.7959 45.7175 22.7258L42.4559 21.7613C42.1753 21.6795 41.8714 21.5713 41.544 21.4369C41.2225 21.2966 40.9157 21.1066 40.6234 20.867C40.337 20.6215 40.1002 20.3117 39.9132 19.9376C39.732 19.5576 39.6414 19.09 39.6414 18.5347C39.6414 17.7222 39.846 17.0413 40.2551 16.4918C40.6702 15.9365 41.2255 15.5215 41.921 15.2468C42.6225 14.972 43.3999 14.8376 44.2533 14.8434C45.1184 14.8493 45.89 14.9983 46.568 15.2906C47.2461 15.577 47.813 15.995 48.269 16.5444C48.7249 17.0939 49.0464 17.7573 49.2334 18.5347L46.9626 18.9293C46.869 18.485 46.6878 18.108 46.419 17.7982C46.1559 17.4826 45.8315 17.2429 45.4457 17.0793C45.0658 16.9156 44.6595 16.8279 44.227 16.8162C43.8061 16.8104 43.4145 16.8747 43.0521 17.0091C42.6955 17.1377 42.4062 17.3248 42.1841 17.5703C41.9678 17.8158 41.8597 18.1022 41.8597 18.4295C41.8597 18.7393 41.9532 18.9936 42.1402 19.1923C42.3273 19.3852 42.5582 19.5401 42.8329 19.657C43.1135 19.7681 43.397 19.8616 43.6834 19.9376L45.9455 20.5689C46.2553 20.6507 46.6031 20.7618 46.9889 20.902C47.3747 21.0423 47.7458 21.2381 48.1024 21.4895C48.4589 21.7408 48.7512 22.0711 48.9792 22.4803C49.213 22.8894 49.3299 23.4097 49.3299 24.0409C49.3299 24.6956 49.1925 25.2714 48.9178 25.7682C48.6489 26.2592 48.2836 26.6684 47.8218 26.9957C47.36 27.3231 46.831 27.5686 46.2348 27.7322C45.6445 27.8959 45.0249 27.9777 44.376 27.9777Z" fill="#99A0AE"/>
<defs>
<clipPath id="clip0_176_18393">
<rect width="28.0231" height="28" fill="white" transform="translate(5.82812 7.00049)"/>
</clipPath>
</defs>
</svg>
