<svg width="126" height="42" viewBox="0 0 126 42" fill="none" xmlns="http://www.w3.org/2000/svg">
<g clip-path="url(#clip0_176_18376)">
<path d="M33.738 34.7596C33.738 34.8995 33.6113 35.0006 33.4713 35.0006C32.2624 35.0006 31.0705 35.0006 29.8747 35.0006C29.3593 35.0006 28.9414 34.5827 28.9414 34.0673C28.9414 30.0219 28.9414 25.9863 28.9414 21.9198C28.9414 21.7111 29.159 21.5733 29.3431 21.6715C30.709 22.4589 32.0748 23.2543 33.4407 24.0336C33.6255 24.138 33.746 24.2345 33.746 24.4835C33.738 27.9062 33.738 31.3289 33.738 34.7596Z" fill="#99A0AE"/>
<path d="M28.393 18.9349C28.393 19.6538 27.6143 20.103 26.9918 19.7433C25.8983 19.1114 24.8237 18.4906 23.7571 17.8699C23.6768 17.8217 23.6045 17.6851 23.6045 17.5887C23.6045 14.0857 23.6045 10.5826 23.6125 7.07963C23.6125 7.03394 23.6674 7.00732 23.7131 7.00732C24.9556 7.00732 26.2031 7.00732 27.4597 7.00732C27.9751 7.00732 28.393 7.4252 28.393 7.94066C28.393 11.5944 28.393 15.2419 28.393 18.9349Z" fill="#99A0AE"/>
<path d="M30.315 19.7538C29.6927 20.1133 28.9138 19.6642 28.9133 18.9454C28.9124 17.6919 28.9135 16.4702 28.9304 15.2523C28.9304 15.1077 29.0992 14.9069 29.2438 14.8185C31.8791 13.2839 34.5224 11.7654 37.1577 10.2389C37.2646 10.1771 37.3709 10.1153 37.4779 10.0531C37.9184 9.79695 38.48 9.9495 38.7353 10.3905C39.2281 11.2421 39.7183 12.094 40.2173 12.9578C40.4752 13.4043 40.323 13.9755 39.8767 14.2337C36.6969 16.0734 33.5241 17.9005 30.315 19.7538Z" fill="#99A0AE"/>
<path d="M19.1613 32.3453C19.0948 32.3662 19.016 32.3395 18.9811 32.2791C18.3592 31.2048 17.7418 30.1346 17.1134 29.0455C16.8557 28.599 17.0088 28.0282 17.4553 27.7705C20.886 25.7908 24.3086 23.8148 27.7773 21.8098C28.0616 21.6455 28.4173 21.8507 28.4173 22.1791C28.4173 23.6815 28.4253 25.1759 28.4092 26.6783C28.4092 26.831 28.3128 27.056 28.1923 27.1202C25.1917 28.8692 22.1831 30.6022 19.1825 32.3352C19.174 32.3401 19.1708 32.3424 19.1613 32.3453Z" fill="#99A0AE"/>
<path d="M30.5691 21.8126C29.9466 21.4537 29.9455 20.555 30.567 20.1944C31.1909 19.8322 31.8026 19.4774 32.4143 19.1252C32.7597 18.9244 33.1293 18.7556 33.4507 18.5146C33.8283 18.2334 34.1336 18.2897 34.5273 18.5146C37.3554 20.1697 40.1916 21.8007 43.0277 23.4397C43.1978 23.5479 43.2534 23.7709 43.1529 23.9455C42.5705 24.9565 41.9874 25.9648 41.3974 26.9862C41.1396 27.4325 40.5689 27.5856 40.1225 27.3279C36.9437 25.4932 33.7765 23.6619 30.5691 21.8126Z" fill="#99A0AE"/>
<path d="M26.763 20.1948C27.3842 20.5543 27.384 21.4515 26.7627 21.8109C25.663 22.4471 24.5891 23.0668 23.5072 23.6786C23.4188 23.7268 23.242 23.7187 23.1456 23.6625C20.1327 21.9351 17.1198 20.1916 14.1149 18.4482C14.0337 18.4075 14.0341 18.289 14.0796 18.2104C14.6954 17.1465 15.3069 16.0865 15.9292 15.008C16.1872 14.5609 16.7592 14.4082 17.2059 14.667C20.3912 16.5128 23.5596 18.341 26.763 20.1948Z" fill="#99A0AE"/>
</g>
<path d="M108.172 27.6764C107.443 27.6764 106.826 27.5394 106.322 27.2652C105.817 26.9849 105.434 26.6142 105.172 26.1532C104.917 25.6921 104.789 25.1844 104.789 24.6299C104.789 24.144 104.87 23.7078 105.032 23.3216C105.194 22.9291 105.443 22.5927 105.78 22.3123C106.116 22.0257 106.552 21.7921 107.088 21.6114C107.493 21.4806 107.966 21.3622 108.508 21.2563C109.057 21.1504 109.649 21.0538 110.284 20.9666C110.926 20.8731 111.595 20.7735 112.293 20.6676L111.49 21.1255C111.496 20.4277 111.34 19.9137 111.022 19.5835C110.705 19.2533 110.169 19.0882 109.415 19.0882C108.96 19.0882 108.521 19.1941 108.097 19.406C107.674 19.6178 107.378 19.9822 107.209 20.4993L105.154 19.8545C105.403 19.001 105.876 18.3157 106.574 17.7986C107.278 17.2815 108.225 17.0229 109.415 17.0229C110.312 17.0229 111.1 17.1694 111.779 17.4622C112.465 17.755 112.972 18.2347 113.302 18.9013C113.483 19.2564 113.592 19.6209 113.63 19.9947C113.667 20.3623 113.686 20.7641 113.686 21.2002V27.3961H111.714V25.2093L112.041 25.5644C111.586 26.2933 111.053 26.8291 110.443 27.1718C109.839 27.5082 109.082 27.6764 108.172 27.6764ZM108.621 25.8821C109.131 25.8821 109.568 25.7918 109.929 25.6111C110.29 25.4305 110.577 25.2093 110.789 24.9476C111.007 24.686 111.153 24.4399 111.228 24.2094C111.346 23.9228 111.412 23.5957 111.424 23.2281C111.443 22.8543 111.452 22.5522 111.452 22.3216L112.144 22.5272C111.465 22.6332 110.882 22.7266 110.396 22.8076C109.91 22.8886 109.493 22.9665 109.144 23.0412C108.795 23.1098 108.487 23.1876 108.219 23.2749C107.957 23.3683 107.736 23.4773 107.555 23.6019C107.375 23.7265 107.234 23.8698 107.135 24.0318C107.041 24.1938 106.995 24.3838 106.995 24.6019C106.995 24.8511 107.057 25.0722 107.181 25.2654C107.306 25.4523 107.487 25.6018 107.723 25.7139C107.966 25.8261 108.265 25.8821 108.621 25.8821Z" fill="#99A0AE"/>
<path d="M100.658 27.3959V21.2654C100.658 20.5739 100.487 20.035 100.144 19.6487C99.8013 19.2562 99.3371 19.06 98.7515 19.06C98.3901 19.06 98.0662 19.1441 97.7796 19.3123C97.493 19.4743 97.2656 19.7173 97.0974 20.0412C96.9292 20.359 96.8451 20.739 96.8451 21.1813L95.8451 20.5926C95.8389 19.8948 95.9947 19.2812 96.3124 18.7516C96.6364 18.2158 97.0725 17.7984 97.6207 17.4993C98.169 17.2003 98.7795 17.0508 99.4524 17.0508C100.568 17.0508 101.421 17.3872 102.013 18.0601C102.611 18.7267 102.91 19.6051 102.91 20.6954V27.3959H100.658ZM88.5186 27.3959V17.3031H90.5091V20.4337H90.7894V27.3959H88.5186ZM94.6022 27.3959V21.2935C94.6022 20.5895 94.4309 20.0412 94.0883 19.6487C93.7456 19.2562 93.2784 19.06 92.6865 19.06C92.1133 19.06 91.6523 19.2562 91.3034 19.6487C90.9608 20.0412 90.7894 20.5521 90.7894 21.1813L89.7801 20.5085C89.7801 19.8543 89.9421 19.2656 90.2661 18.7423C90.5901 18.2189 91.0262 17.8077 91.5744 17.5087C92.1289 17.2034 92.7488 17.0508 93.4341 17.0508C94.1879 17.0508 94.8172 17.2128 95.3218 17.5367C95.8327 17.8545 96.2127 18.2906 96.4619 18.845C96.7174 19.3933 96.8451 20.0132 96.8451 20.7047V27.3959H94.6022Z" fill="#99A0AE"/>
<path d="M81.2634 32.1621C80.7027 32.1621 80.1638 32.0749 79.6467 31.9004C79.1358 31.726 78.6748 31.4737 78.2636 31.1435C77.8524 30.8195 77.516 30.427 77.2543 29.966L79.3289 28.938C79.5221 29.3056 79.7931 29.5766 80.142 29.751C80.4971 29.9317 80.874 30.022 81.2727 30.022C81.74 30.022 82.1574 29.9379 82.525 29.7697C82.8925 29.6077 83.176 29.3648 83.3754 29.0408C83.581 28.7231 83.6775 28.3243 83.6651 27.8446V24.9757H83.9454V17.3033H85.9173V27.882C85.9173 28.1374 85.9048 28.3804 85.8799 28.6109C85.8612 28.8477 85.8269 29.0782 85.7771 29.3025C85.6276 29.9566 85.341 30.4924 84.9173 30.9098C84.4937 31.3335 83.9672 31.6481 83.338 31.8537C82.715 32.0593 82.0234 32.1621 81.2634 32.1621ZM81.0671 27.6764C80.1388 27.6764 79.3289 27.4428 78.6374 26.9755C77.9458 26.5083 77.4101 25.8728 77.03 25.0691C76.65 24.2654 76.46 23.359 76.46 22.3497C76.46 21.3279 76.65 20.4184 77.03 19.6209C77.4163 18.8172 77.9614 18.1849 78.6654 17.7238C79.3694 17.2566 80.198 17.0229 81.1512 17.0229C82.1107 17.0229 82.9143 17.2566 83.5623 17.7238C84.2164 18.1849 84.7117 18.8172 85.0482 19.6209C85.3846 20.4246 85.5528 21.3342 85.5528 22.3497C85.5528 23.3527 85.3846 24.2592 85.0482 25.0691C84.7117 25.8728 84.2102 26.5083 83.5436 26.9755C82.877 27.4428 82.0515 27.6764 81.0671 27.6764ZM81.4129 25.6579C82.0172 25.6579 82.5032 25.5208 82.8707 25.2467C83.2445 24.9663 83.5155 24.5769 83.6838 24.0785C83.8582 23.5801 83.9454 23.0038 83.9454 22.3497C83.9454 21.6893 83.8582 21.113 83.6838 20.6208C83.5155 20.1224 83.2508 19.7362 82.8894 19.462C82.5281 19.1817 82.0608 19.0415 81.4877 19.0415C80.8833 19.0415 80.3849 19.191 79.9924 19.4901C79.5999 19.7829 79.3102 20.1816 79.1233 20.6862C78.9364 21.1847 78.843 21.7391 78.843 22.3497C78.843 22.9665 78.9333 23.5272 79.114 24.0318C79.3009 24.5302 79.5844 24.9258 79.9644 25.2186C80.3444 25.5115 80.8273 25.6579 81.4129 25.6579Z" fill="#99A0AE"/>
<path d="M71.9668 15.7694V13.7041H74.219V15.7694H71.9668ZM71.9668 27.3947V17.302H74.219V27.3947H71.9668Z" fill="#99A0AE"/>
<path d="M67.062 27.3947V22.5352C67.062 22.2175 67.0402 21.8655 66.9966 21.4792C66.953 21.0929 66.8502 20.7222 66.6882 20.3671C66.5325 20.0058 66.2957 19.7098 65.978 19.4793C65.6665 19.2488 65.2428 19.1336 64.707 19.1336C64.4205 19.1336 64.137 19.1803 63.8566 19.2737C63.5763 19.3672 63.3208 19.5292 63.0903 19.7597C62.866 19.984 62.6854 20.2955 62.5483 20.6942C62.4112 21.0867 62.3427 21.5913 62.3427 22.2081L61.0064 21.6381C61.0064 20.7783 61.1715 19.9995 61.5017 19.3018C61.8381 18.604 62.3303 18.0495 62.9782 17.6383C63.6261 17.2209 64.4236 17.0122 65.3705 17.0122C66.1182 17.0122 66.7349 17.1368 67.2209 17.386C67.7068 17.6352 68.0931 17.953 68.3797 18.3392C68.6663 18.7255 68.8781 19.1367 69.0152 19.5728C69.1522 20.0089 69.2394 20.4232 69.2768 20.8157C69.3204 21.2019 69.3422 21.5166 69.3422 21.7595V27.3947H67.062ZM60.0625 27.3947V17.3019H62.0717V20.4325H62.3427V27.3947H60.0625Z" fill="#99A0AE"/>
<path d="M49.1504 27.3965V13.9395H57.8414V16.0515H51.4026V19.369H56.72V21.481H51.4026V25.2845H57.8414V27.3965H49.1504Z" fill="#99A0AE"/>
<defs>
<clipPath id="clip0_176_18376">
<rect width="29.3337" height="28" fill="white" transform="translate(14 7)"/>
</clipPath>
</defs>
</svg>
