<svg width="126" height="42" viewBox="0 0 126 42" fill="none" xmlns="http://www.w3.org/2000/svg">
<g clip-path="url(#clip0_176_18312)">
<path d="M18.3252 8.46966C24.4584 5.02998 33.2202 7.85018 37.8988 14.774C42.5775 21.6979 41.4001 30.0968 35.2703 33.5365C40.4829 30.6137 41.4823 23.4708 37.5052 17.5874C33.5282 11.704 26.0773 9.30477 20.8682 12.2276C15.6556 15.1539 14.6562 22.2934 18.6298 28.1802C22.6068 34.0636 30.0543 36.4628 35.2669 33.5365C29.1337 36.9796 20.3719 34.156 15.6932 27.2322C11.018 20.3117 12.1954 11.9093 18.3252 8.46966Z" fill="#99A0AE"/>
<path d="M22.8856 10.6943C27.9099 7.87411 35.0905 10.1878 38.9203 15.859C42.7536 21.5301 41.7884 28.4129 36.7641 31.2331C41.0355 28.8373 41.8535 22.9847 38.5952 18.1658C35.3403 13.3468 29.2345 11.3788 24.9665 13.7746C20.6952 16.1704 19.8772 22.023 23.1355 26.8454C26.3938 31.6678 32.4962 33.6323 36.7675 31.2331C31.7432 34.0533 24.5627 31.7431 20.7328 26.0685C16.8996 20.3973 17.8647 13.5111 22.889 10.6943H22.8856Z" fill="#99A0AE"/>
<path d="M29.9469 10.4681C35.2724 10.8035 40.1496 15.4308 40.8375 20.8043C41.522 26.1777 37.7606 30.2608 32.4351 29.9288C36.9632 30.2129 40.1599 26.7424 39.578 22.1733C38.9928 17.6042 34.8515 13.6716 30.3234 13.3876C25.7954 13.1035 22.5953 16.574 23.1805 21.1431C23.7658 25.7122 27.9105 29.6447 32.4351 29.9288C27.1096 29.5934 22.2359 24.9661 21.548 19.5927C20.86 14.2192 24.6214 10.1361 29.9504 10.4681H29.9469Z" fill="#99A0AE"/>
<path d="M35.5311 12.6391C39.7443 15.1684 41.7328 20.3125 39.977 24.1253C38.2178 27.938 33.3783 28.9785 29.1651 26.4492C32.7485 28.5986 36.8625 27.7155 38.3547 24.4744C39.8504 21.2332 38.1562 16.8626 34.5762 14.7098C30.9928 12.5604 26.8788 13.4434 25.3866 16.6846C23.8909 19.9258 25.5817 24.2964 29.1651 26.4458C24.9519 23.9165 22.9634 18.7724 24.7226 14.9596C26.4818 11.1469 31.3213 10.1064 35.5345 12.6357L35.5311 12.6391Z" fill="#99A0AE"/>
</g>
<path d="M107.647 29.4105C106.889 29.4105 106.247 29.2679 105.722 28.9826C105.197 28.6909 104.798 28.3051 104.526 27.8254C104.26 27.3456 104.127 26.8172 104.127 26.2402C104.127 25.7345 104.211 25.2807 104.38 24.8787C104.548 24.4703 104.808 24.1202 105.158 23.8285C105.508 23.5302 105.962 23.2871 106.519 23.0991C106.941 22.963 107.433 22.8398 107.997 22.7296C108.568 22.6193 109.184 22.5189 109.845 22.4281C110.513 22.3308 111.21 22.2271 111.936 22.1169L111.1 22.5934C111.106 21.8673 110.944 21.3324 110.613 20.9888C110.283 20.6452 109.725 20.4734 108.941 20.4734C108.467 20.4734 108.01 20.5836 107.57 20.804C107.129 21.0245 106.821 21.4037 106.646 21.9419L104.506 21.2708C104.766 20.3826 105.258 19.6695 105.984 19.1314C106.717 18.5933 107.702 18.3242 108.941 18.3242C109.874 18.3242 110.694 18.4766 111.401 18.7813C112.114 19.086 112.643 19.5852 112.986 20.2789C113.174 20.6485 113.288 21.0277 113.327 21.4167C113.366 21.7992 113.385 22.2174 113.385 22.6712V29.1188H111.333V26.8432L111.673 27.2127C111.2 27.9712 110.646 28.5288 110.01 28.8854C109.382 29.2355 108.594 29.4105 107.647 29.4105ZM108.114 27.5434C108.646 27.5434 109.1 27.4493 109.476 27.2613C109.852 27.0733 110.15 26.8432 110.37 26.5709C110.597 26.2986 110.75 26.0425 110.827 25.8026C110.951 25.5044 111.019 25.164 111.032 24.7815C111.051 24.3925 111.061 24.0781 111.061 23.8382L111.78 24.0521C111.074 24.1624 110.468 24.2596 109.962 24.3439C109.456 24.4282 109.022 24.5092 108.659 24.587C108.296 24.6583 107.975 24.7394 107.696 24.8301C107.424 24.9274 107.194 25.0408 107.005 25.1705C106.817 25.3002 106.672 25.4493 106.568 25.6178C106.471 25.7864 106.422 25.9841 106.422 26.211C106.422 26.4704 106.487 26.7005 106.617 26.9015C106.746 27.096 106.934 27.2516 107.181 27.3683C107.433 27.485 107.745 27.5434 108.114 27.5434Z" fill="#99A0AE"/>
<path d="M99.8024 29.1182V24.0613C99.8024 23.7307 99.7798 23.3644 99.7344 22.9624C99.689 22.5605 99.582 22.1747 99.4135 21.8052C99.2514 21.4291 99.005 21.1212 98.6744 20.8813C98.3502 20.6414 97.9093 20.5215 97.3518 20.5215C97.0536 20.5215 96.7586 20.5701 96.4668 20.6674C96.1751 20.7646 95.9093 20.9332 95.6694 21.1731C95.436 21.4065 95.248 21.7306 95.1054 22.1455C94.9627 22.554 94.8914 23.0791 94.8914 23.721L93.5008 23.1278C93.5008 22.2331 93.6726 21.4227 94.0162 20.6965C94.3663 19.9704 94.8784 19.3934 95.5527 18.9655C96.227 18.5312 97.0568 18.314 98.0423 18.314C98.8202 18.314 99.4621 18.4436 99.9678 18.703C100.473 18.9623 100.875 19.2929 101.174 19.6949C101.472 20.0968 101.692 20.5247 101.835 20.9786C101.978 21.4324 102.068 21.8635 102.107 22.272C102.153 22.6739 102.175 23.0013 102.175 23.2542V29.1182H99.8024ZM92.5186 29.1182V18.6154H94.6094V21.8732H94.8914V29.1182H92.5186Z" fill="#99A0AE"/>
<path d="M87.2803 17.0213V14.8721H89.624V17.0213H87.2803ZM87.2803 29.1189V18.6161H89.624V29.1189H87.2803Z" fill="#99A0AE"/>
<path d="M82.2077 29.1179V22.7384C82.2077 22.0188 82.0294 21.458 81.6729 21.056C81.3163 20.6476 80.8333 20.4434 80.2239 20.4434C79.8478 20.4434 79.5107 20.5309 79.2125 20.7059C78.9143 20.8745 78.6776 21.1274 78.5026 21.4645C78.3275 21.7951 78.24 22.1906 78.24 22.6509L77.1995 22.0382C77.193 21.3121 77.3551 20.6735 77.6857 20.1225C78.0228 19.5649 78.4766 19.1305 79.0472 18.8193C79.6177 18.5081 80.253 18.3525 80.9532 18.3525C82.1137 18.3525 83.0019 18.7026 83.6178 19.4028C84.2402 20.0965 84.5514 21.0107 84.5514 22.1452V29.1179H82.2077ZM69.5752 29.1179V18.6151H71.6466V21.8729H71.9383V29.1179H69.5752ZM75.9061 29.1179V22.7676C75.9061 22.035 75.7278 21.4645 75.3712 21.056C75.0146 20.6476 74.5284 20.4434 73.9125 20.4434C73.316 20.4434 72.8363 20.6476 72.4732 21.056C72.1166 21.4645 71.9383 21.9961 71.9383 22.6509L70.888 21.9507C70.888 21.27 71.0566 20.6573 71.3937 20.1127C71.7309 19.5681 72.1847 19.1402 72.7552 18.8291C73.3322 18.5114 73.9773 18.3525 74.6905 18.3525C75.4749 18.3525 76.1297 18.5211 76.6549 18.8582C77.1865 19.1889 77.582 19.6427 77.8413 20.2197C78.1071 20.7902 78.24 21.4353 78.24 22.1549V29.1179H75.9061Z" fill="#99A0AE"/>
<path d="M61.3547 29.4205C60.5767 29.4205 59.9349 29.2908 59.4292 29.0315C58.9235 28.7722 58.5216 28.4415 58.2233 28.0396C57.9251 27.6376 57.7047 27.2097 57.562 26.7559C57.4194 26.3021 57.3254 25.8742 57.28 25.4722C57.2411 25.0638 57.2217 24.7331 57.2217 24.4803V18.6162H59.5945V23.6731C59.5945 23.9973 59.6172 24.3636 59.6626 24.772C59.708 25.174 59.8117 25.563 59.9738 25.939C60.1424 26.3085 60.3887 26.6133 60.7129 26.8531C61.0435 27.093 61.4876 27.213 62.0452 27.213C62.3434 27.213 62.6384 27.1643 62.9302 27.0671C63.2219 26.9698 63.4845 26.8045 63.7179 26.5711C63.9577 26.3312 64.149 26.0038 64.2916 25.5889C64.4343 25.174 64.5056 24.6488 64.5056 24.0135L65.8962 24.6067C65.8962 25.5014 65.7212 26.3118 65.3711 27.0379C65.0275 27.764 64.5185 28.3443 63.8443 28.7787C63.17 29.2065 62.3402 29.4205 61.3547 29.4205ZM64.7876 29.119V25.8612H64.5056V18.6162H66.859V29.119H64.7876Z" fill="#99A0AE"/>
<path d="M47.2441 29.1151V15.1113H49.5878V26.9173H55.7728V29.1151H47.2441Z" fill="#99A0AE"/>
<defs>
<clipPath id="clip0_176_18312">
<rect width="28.4347" height="28" fill="white" transform="translate(12.832 7)"/>
</clipPath>
</defs>
</svg>
