<svg width="32" height="32" viewBox="0 0 32 32" fill="none" xmlns="http://www.w3.org/2000/svg">
<path d="M13 21C13 21 20 22 23 25H24C24.5523 25 25 24.5523 25 24V17.937C25.8626 17.715 26.5 16.9319 26.5 16C26.5 15.0681 25.8626 14.285 25 14.063V8C25 7.44772 24.5523 7 24 7H23C20 10 13 11 13 11H9C7.89543 11 7 11.8954 7 13V19C7 20.1046 7.89543 21 9 21H10L11 26H13V21ZM15 12.6612C15.6833 12.5146 16.5275 12.3119 17.4393 12.0437C19.1175 11.5501 21.25 10.7726 23 9.57458V22.4254C21.25 21.2274 19.1175 20.4499 17.4393 19.9563C16.5275 19.6881 15.6833 19.4854 15 19.3388V12.6612ZM9 13H13V19H9V13Z" fill="#A4A4A4"/>
</svg>
