<svg width="28" height="28" viewBox="0 0 28 28" fill="none" xmlns="http://www.w3.org/2000/svg">
<g filter="url(#filter0_i_176_18891)">
<path d="M5.37195 4.3675L13.9998 2.4502L22.6277 4.3675C22.8608 4.41933 23.0693 4.54911 23.2188 4.73542C23.3683 4.92173 23.4498 5.15344 23.4498 5.3923V15.8786C23.4497 16.9158 23.1936 17.9368 22.7042 18.8512C22.2148 19.7656 21.5072 20.545 20.6442 21.1202L13.9998 25.5502L7.3554 21.1202C6.49259 20.5451 5.78509 19.7658 5.29567 18.8517C4.80625 17.9375 4.55005 16.9166 4.5498 15.8797V5.3923C4.54985 5.15344 4.63132 4.92173 4.78079 4.73542C4.93026 4.54911 5.13879 4.41933 5.37195 4.3675V4.3675ZM13.9998 12.9502C14.696 12.9502 15.3637 12.6736 15.856 12.1814C16.3482 11.6891 16.6248 11.0214 16.6248 10.3252C16.6248 9.629 16.3482 8.96132 15.856 8.46904C15.3637 7.97676 14.696 7.7002 13.9998 7.7002C13.3036 7.7002 12.6359 7.97676 12.1436 8.46904C11.6514 8.96132 11.3748 9.629 11.3748 10.3252C11.3748 11.0214 11.6514 11.6891 12.1436 12.1814C12.6359 12.6736 13.3036 12.9502 13.9998 12.9502ZM9.30315 18.2002H18.6965C18.5692 17.0435 18.0195 15.9745 17.1529 15.198C16.2862 14.4214 15.1635 13.992 13.9998 13.992C12.8361 13.992 11.7134 14.4214 10.8467 15.198C9.98007 15.9745 9.43044 17.0435 9.30315 18.2002V18.2002Z" fill="#00B481"/>
</g>
<defs>
<filter id="filter0_i_176_18891" x="4.5498" y="0.450195" width="18.9004" height="25.0996" filterUnits="userSpaceOnUse" color-interpolation-filters="sRGB">
<feFlood flood-opacity="0" result="BackgroundImageFix"/>
<feBlend mode="normal" in="SourceGraphic" in2="BackgroundImageFix" result="shape"/>
<feColorMatrix in="SourceAlpha" type="matrix" values="0 0 0 0 0 0 0 0 0 0 0 0 0 0 0 0 0 0 127 0" result="hardAlpha"/>
<feOffset dy="-2"/>
<feGaussianBlur stdDeviation="2"/>
<feComposite in2="hardAlpha" operator="arithmetic" k2="-1" k3="1"/>
<feColorMatrix type="matrix" values="0 0 0 0 1 0 0 0 0 1 0 0 0 0 1 0 0 0 0.24 0"/>
<feBlend mode="plus-lighter" in2="shape" result="effect1_innerShadow_176_18891"/>
</filter>
</defs>
</svg>
