<svg width="16" height="16" viewBox="0 0 16 16" fill="none" xmlns="http://www.w3.org/2000/svg">
<path d="M6.5218 8.59961H5.1976C4.9504 9.29921 4.2838 9.79961 3.5002 9.79961C2.506 9.79961 1.7002 8.99381 1.7002 7.99961C1.7002 7.00541 2.506 6.19961 3.5002 6.19961C4.2838 6.19961 4.951 6.70061 5.1982 7.39961H6.5218L8.6002 3.79961H10.5022C10.7494 3.10061 11.4166 2.59961 12.2002 2.59961C13.1944 2.59961 14.0002 3.40541 14.0002 4.39961C14.0002 5.39381 13.1944 6.19961 12.2002 6.19961C11.4166 6.19961 10.75 5.69921 10.5028 4.99961H9.2926L7.561 7.99901L9.2932 10.9996H10.5028C10.7494 10.3006 11.4166 9.79961 12.2002 9.79961C13.1944 9.79961 14.0002 10.6054 14.0002 11.5996C14.0002 12.5938 13.1944 13.3996 12.2002 13.3996C11.4166 13.3996 10.75 12.8992 10.5028 12.1996H8.6002L6.5218 8.59961ZM12.2002 10.9996C11.869 10.9996 11.6002 11.2684 11.6002 11.5996C11.6002 11.9308 11.869 12.1996 12.2002 12.1996C12.5314 12.1996 12.8002 11.9308 12.8002 11.5996C12.8002 11.2684 12.5314 10.9996 12.2002 10.9996ZM3.5002 7.39961C3.169 7.39961 2.9002 7.66841 2.9002 7.99961C2.9002 8.33081 3.169 8.59961 3.5002 8.59961C3.8314 8.59961 4.1002 8.33081 4.1002 7.99961C4.1002 7.66841 3.8314 7.39961 3.5002 7.39961ZM12.2002 3.79961C11.869 3.79961 11.6002 4.06841 11.6002 4.39961C11.6002 4.73081 11.869 4.99961 12.2002 4.99961C12.5314 4.99961 12.8002 4.73081 12.8002 4.39961C12.8002 4.06841 12.5314 3.79961 12.2002 3.79961Z" fill="#00B481"/>
</svg>
