<svg width="16" height="16" viewBox="0 0 16 16" fill="none" xmlns="http://www.w3.org/2000/svg">
<path d="M6.5218 8.6001H5.1976C4.9504 9.2997 4.2838 9.8001 3.5002 9.8001C2.506 9.8001 1.7002 8.9943 1.7002 8.0001C1.7002 7.0059 2.506 6.2001 3.5002 6.2001C4.2838 6.2001 4.951 6.7011 5.1982 7.4001H6.5218L8.6002 3.8001H10.5022C10.7494 3.1011 11.4166 2.6001 12.2002 2.6001C13.1944 2.6001 14.0002 3.4059 14.0002 4.4001C14.0002 5.3943 13.1944 6.2001 12.2002 6.2001C11.4166 6.2001 10.75 5.6997 10.5028 5.0001H9.2926L7.561 7.9995L9.2932 11.0001H10.5028C10.7494 10.3011 11.4166 9.8001 12.2002 9.8001C13.1944 9.8001 14.0002 10.6059 14.0002 11.6001C14.0002 12.5943 13.1944 13.4001 12.2002 13.4001C11.4166 13.4001 10.75 12.8997 10.5028 12.2001H8.6002L6.5218 8.6001ZM12.2002 11.0001C11.869 11.0001 11.6002 11.2689 11.6002 11.6001C11.6002 11.9313 11.869 12.2001 12.2002 12.2001C12.5314 12.2001 12.8002 11.9313 12.8002 11.6001C12.8002 11.2689 12.5314 11.0001 12.2002 11.0001ZM3.5002 7.4001C3.169 7.4001 2.9002 7.6689 2.9002 8.0001C2.9002 8.3313 3.169 8.6001 3.5002 8.6001C3.8314 8.6001 4.1002 8.3313 4.1002 8.0001C4.1002 7.6689 3.8314 7.4001 3.5002 7.4001ZM12.2002 3.8001C11.869 3.8001 11.6002 4.0689 11.6002 4.4001C11.6002 4.7313 11.869 5.0001 12.2002 5.0001C12.5314 5.0001 12.8002 4.7313 12.8002 4.4001C12.8002 4.0689 12.5314 3.8001 12.2002 3.8001Z" fill="#00B481"/>
</svg>
