<svg width="24" height="24" viewBox="0 0 24 24" fill="none" xmlns="http://www.w3.org/2000/svg">
<path d="M5.7 14.7V16.5C5.69986 16.9541 5.87137 17.3915 6.18015 17.7245C6.48893 18.0575 6.91216 18.2614 7.365 18.2955L7.5 18.3H10.2V20.1H7.5C6.54522 20.1 5.62955 19.7207 4.95442 19.0456C4.27928 18.3705 3.9 17.4548 3.9 16.5V14.7H5.7ZM17.4 10.2L21.36 20.1H19.4205L18.3396 17.4H14.6586L13.5795 20.1H11.6409L15.6 10.2H17.4ZM16.5 12.7965L15.3777 15.6H17.6205L16.5 12.7965ZM8.4 3V4.8H12V11.1H8.4V13.8H6.6V11.1H3V4.8H6.6V3H8.4ZM16.5 3.9C17.4548 3.9 18.3705 4.27928 19.0456 4.95442C19.7207 5.62955 20.1 6.54522 20.1 7.5V9.3H18.3V7.5C18.3 7.02261 18.1104 6.56477 17.7728 6.22721C17.4352 5.88964 16.9774 5.7 16.5 5.7H13.8V3.9H16.5ZM6.6 6.6H4.8V9.3H6.6V6.6ZM10.2 6.6H8.4V9.3H10.2V6.6Z" fill="#525866"/>
</svg>
