<svg width="20" height="8" viewBox="0 0 20 8" fill="none" xmlns="http://www.w3.org/2000/svg">
<path d="M10.5572 1.01181L9.19756 1.28096V0.264168L10.5572 0V1.01181Z" fill="white"/>
<path fill-rule="evenodd" clip-rule="evenodd" d="M13.3846 1.57513C12.8538 1.57513 12.5125 1.80441 12.3229 1.96391L12.2525 1.65488H11.0609V7.46658L12.415 7.20242L12.4204 5.79186C12.6154 5.92145 12.9025 6.10587 13.3792 6.10587C14.3488 6.10587 15.2317 5.38813 15.2317 3.8081C15.2263 2.36265 14.3325 1.57513 13.3846 1.57513ZM13.0595 5.00927C12.7399 5.00927 12.5503 4.9046 12.4203 4.77501L12.4149 2.92583C12.5558 2.78129 12.7507 2.6816 13.0595 2.6816C13.5524 2.6816 13.8937 3.19 13.8937 3.84294C13.8937 4.51084 13.5578 5.00927 13.0595 5.00927Z" fill="white"/>
<path fill-rule="evenodd" clip-rule="evenodd" d="M19.4999 3.85794C19.4999 2.58196 18.8283 1.57513 17.5445 1.57513C16.2553 1.57513 15.4753 2.58196 15.4753 3.84797C15.4753 5.34825 16.3962 6.10586 17.7178 6.10586C18.3624 6.10586 18.8499 5.97129 19.2183 5.78188V4.78502C18.8499 4.95449 18.4274 5.05916 17.8912 5.05916C17.3658 5.05916 16.8999 4.88969 16.8403 4.30155H19.4891C19.4891 4.27407 19.491 4.21166 19.4933 4.13976C19.4963 4.04207 19.4999 3.92685 19.4999 3.85794ZM16.8241 3.38425C16.8241 2.82103 17.1978 2.58677 17.5391 2.58677C17.8695 2.58677 18.2216 2.82103 18.2216 3.38425H16.8241Z" fill="white"/>
<path d="M9.19739 1.6598H10.557V6.02105H9.19739V1.6598Z" fill="white"/>
<path d="M7.65377 1.65998L7.74043 2.02882C8.06002 1.49052 8.69377 1.60017 8.8671 1.65998V2.80637C8.69919 2.75155 8.15752 2.68177 7.83793 3.06556V6.02125H6.48376V1.65998H7.65377Z" fill="white"/>
<path d="M5.03205 0.578533L3.71037 0.837717L3.70496 4.83014C3.70496 5.56782 4.30621 6.11111 5.10788 6.11111C5.55205 6.11111 5.87705 6.03634 6.0558 5.94662V4.93481C5.88247 4.99961 5.02663 5.22889 5.02663 4.49121V2.72178H6.0558V1.66013H5.02663L5.03205 0.578533Z" fill="white"/>
<path d="M1.83084 2.65673C1.54376 2.65673 1.37042 2.73149 1.37042 2.92588C1.37042 3.13812 1.66873 3.23148 2.03882 3.34731C2.64215 3.53614 3.43624 3.78466 3.4396 4.70528C3.4396 5.59747 2.66501 6.11085 1.53834 6.11085C1.07251 6.11085 0.563336 6.02612 0.0595836 5.82674V4.64048C0.514586 4.86976 1.08876 5.03923 1.53834 5.03923C1.84168 5.03923 2.05834 4.96446 2.05834 4.73518C2.05834 4.50009 1.73497 4.39263 1.34457 4.2629C0.750012 4.06533 0 3.81609 0 2.98569C0 2.10347 0.731254 1.57513 1.83084 1.57513C2.28043 1.57513 2.7246 1.63993 3.17418 1.80441V2.97572C2.76251 2.77137 2.24251 2.65673 1.83084 2.65673Z" fill="white"/>
</svg>
