<svg width="32" height="32" viewBox="0 0 32 32" fill="none" xmlns="http://www.w3.org/2000/svg">
<path d="M5.2 5.2002H26.8C27.1183 5.2002 27.4235 5.32662 27.6485 5.55167C27.8736 5.77671 28 6.08194 28 6.4002V25.6002C28 25.9185 27.8736 26.2237 27.6485 26.4487C27.4235 26.6738 27.1183 26.8002 26.8 26.8002H5.2C4.88174 26.8002 4.57652 26.6738 4.35147 26.4487C4.12643 26.2237 4 25.9185 4 25.6002V6.4002C4 6.08194 4.12643 5.77671 4.35147 5.55167C4.57652 5.32662 4.88174 5.2002 5.2 5.2002V5.2002ZM25.6 14.8002H6.4V24.4002H25.6V14.8002ZM25.6 12.4002V7.6002H6.4V12.4002H25.6ZM18.4 19.6002H23.2V22.0002H18.4V19.6002Z" fill="#A4A4A4"/>
</svg>
