<svg width="191" height="190" viewBox="0 0 191 190" fill="none" xmlns="http://www.w3.org/2000/svg">
<g filter="url(#filter0_d_176_18436)">
<path d="M177.12 89.871C177.12 92.562 176.018 95.1356 174.07 96.9926L152.834 117.241C150.887 119.098 149.785 121.671 149.785 124.362V161.678C149.785 167.112 145.379 171.518 139.945 171.518H68.5412C65.9315 171.518 63.4287 170.481 61.5834 168.636L16.0023 123.056C14.1569 121.211 13.1201 118.708 13.1201 116.098V18.0426C13.1201 12.6081 17.5256 8.2026 22.9601 8.2026H52.5445C52.5451 8.2026 52.5456 8.20199 52.5454 8.2014C52.5452 8.20081 52.5456 8.2002 52.5462 8.2002H167.28C172.715 8.2002 177.12 12.6057 177.12 18.0402V89.871Z" fill="white"/>
<path d="M167.28 8.61035C172.488 8.61043 176.71 12.8321 176.71 18.04V89.8711C176.71 92.4499 175.654 94.9167 173.787 96.6963L152.552 116.944C150.523 118.879 149.375 121.559 149.375 124.362V161.678C149.375 166.886 145.152 171.108 139.944 171.108H68.541C66.0401 171.108 63.6415 170.114 61.873 168.346L16.292 122.767C14.5235 120.998 13.5304 118.6 13.5303 116.099V18.043C13.5303 12.835 17.752 8.61239 22.96 8.6123H52.5449C52.5505 8.6123 52.556 8.61057 52.5615 8.61035H167.28Z" stroke="#E1E4EA" stroke-width="0.82"/>
</g>
<mask id="path-3-inside-1_176_18436" fill="white">
<path d="M81.4492 49.2021V103.19H108.784V130.518H81.4473L54.1201 103.191V49.2021H81.4492ZM136.12 76.5273L108.791 103.189V49.2002H136.12V76.5273Z"/>
</mask>
<path d="M81.4492 49.2021V103.19H108.784V130.518H81.4473L54.1201 103.191V49.2021H81.4492ZM136.12 76.5273L108.791 103.189V49.2002H136.12V76.5273Z" fill="#00B481"/>
<path d="M81.4492 49.2021V103.19H108.784V130.518H81.4473L54.1201 103.191V49.2021H81.4492ZM136.12 76.5273L108.791 103.189V49.2002H136.12V76.5273Z" fill="url(#paint0_linear_176_18436)" fill-opacity="0.2"/>
<path d="M81.4492 49.2021H83.0892V47.5621H81.4492V49.2021ZM81.4492 103.19H79.8092V104.83H81.4492V103.19ZM108.784 103.19H110.424V101.55H108.784V103.19ZM108.784 130.518V132.158H110.424V130.518H108.784ZM81.4473 130.518L80.2876 131.677L80.768 132.158H81.4473V130.518ZM54.1201 103.191H52.4801V103.871L52.9605 104.351L54.1201 103.191ZM54.1201 49.2021V47.5621H52.4801V49.2021H54.1201ZM136.12 76.5273L137.265 77.7012L137.76 77.2186V76.5273H136.12ZM108.791 103.189H107.151V107.081L109.936 104.363L108.791 103.189ZM108.791 49.2002V47.5602H107.151V49.2002H108.791ZM136.12 49.2002H137.76V47.5602H136.12V49.2002ZM81.4492 49.2021H79.8092V103.19H81.4492H83.0892V49.2021H81.4492ZM81.4492 103.19V104.83H108.784V103.19V101.55H81.4492V103.19ZM108.784 103.19H107.144V130.518H108.784H110.424V103.19H108.784ZM108.784 130.518V128.878H81.4473V130.518V132.158H108.784V130.518ZM81.4473 130.518L82.6069 129.358L55.2798 102.032L54.1201 103.191L52.9605 104.351L80.2876 131.677L81.4473 130.518ZM54.1201 103.191H55.7601V49.2021H54.1201H52.4801V103.191H54.1201ZM54.1201 49.2021V50.8421H81.4492V49.2021V47.5621H54.1201V49.2021ZM136.12 76.5273L134.975 75.3535L107.646 102.016L108.791 103.189L109.936 104.363L137.265 77.7012L136.12 76.5273ZM108.791 103.189H110.431V49.2002H108.791H107.151V103.189H108.791ZM108.791 49.2002V50.8402H136.12V49.2002V47.5602H108.791V49.2002ZM136.12 49.2002H134.48V76.5273H136.12H137.76V49.2002H136.12Z" fill="#008364" fill-opacity="0.24" mask="url(#path-3-inside-1_176_18436)"/>
<defs>
<filter id="filter0_d_176_18436" x="0.000117302" y="0.00019598" width="190.24" height="189.558" filterUnits="userSpaceOnUse" color-interpolation-filters="sRGB">
<feFlood flood-opacity="0" result="BackgroundImageFix"/>
<feColorMatrix in="SourceAlpha" type="matrix" values="0 0 0 0 0 0 0 0 0 0 0 0 0 0 0 0 0 0 127 0" result="hardAlpha"/>
<feOffset dy="4.92"/>
<feGaussianBlur stdDeviation="6.56"/>
<feComposite in2="hardAlpha" operator="out"/>
<feColorMatrix type="matrix" values="0 0 0 0 0.054902 0 0 0 0 0.0705882 0 0 0 0 0.105882 0 0 0 0.08 0"/>
<feBlend mode="normal" in2="BackgroundImageFix" result="effect1_dropShadow_176_18436"/>
<feBlend mode="normal" in="SourceGraphic" in2="effect1_dropShadow_176_18436" result="shape"/>
</filter>
<linearGradient id="paint0_linear_176_18436" x1="95.1201" y1="49.2002" x2="95.1201" y2="130.518" gradientUnits="userSpaceOnUse">
<stop stop-color="white"/>
<stop offset="1" stop-color="white" stop-opacity="0"/>
</linearGradient>
</defs>
</svg>
