<svg width="126" height="42" viewBox="0 0 126 42" fill="none" xmlns="http://www.w3.org/2000/svg">
<g clip-path="url(#clip0_176_18361)">
<path d="M12.8291 29.9975V35.0002L29.9497 27.3484V22.3457L12.8291 29.9975Z" fill="#99A0AE"/>
<path d="M12.8291 12.0027V7L29.9497 14.6518V19.6545L12.8291 12.0027Z" fill="#99A0AE"/>
<path d="M12.8291 19.6565V14.6538L29.9497 22.3056V27.3108L12.8291 19.6565Z" fill="#99A0AE"/>
</g>
<path d="M105.307 31.0283L107.375 25.3535L107.414 27.0231L102.733 15.5244H105.228L108.547 24.0317H107.911L111.141 15.5244H113.536L107.554 31.0283H105.307Z" fill="#99A0AE"/>
<path d="M96.1552 31.3258C95.5589 31.3258 94.9858 31.233 94.4359 31.0475C93.8926 30.862 93.4023 30.5936 92.965 30.2425C92.5277 29.898 92.1699 29.4805 91.8916 28.9903L94.098 27.897C94.3034 28.2879 94.5916 28.5762 94.9626 28.7617C95.3403 28.9538 95.7411 29.0499 96.1651 29.0499C96.6621 29.0499 97.106 28.9604 97.4969 28.7815C97.8878 28.6093 98.1893 28.3509 98.4013 28.0064C98.6199 27.6684 98.7226 27.2444 98.7094 26.7342V23.6832H99.0075V15.5237H101.105V26.774C101.105 27.0456 101.091 27.304 101.065 27.5492C101.045 27.801 101.008 28.0461 100.955 28.2846C100.796 28.9803 100.492 29.5501 100.041 29.994C99.5906 30.4446 99.0307 30.7792 98.3615 30.9978C97.699 31.2164 96.9635 31.3258 96.1552 31.3258ZM95.9465 26.5553C94.9593 26.5553 94.098 26.3069 93.3625 25.81C92.6271 25.313 92.0573 24.6372 91.6531 23.7825C91.249 22.9278 91.0469 21.9638 91.0469 20.8905C91.0469 19.8039 91.249 18.8365 91.6531 17.9885C92.0639 17.1338 92.6436 16.4613 93.3923 15.971C94.141 15.474 95.0222 15.2256 96.0359 15.2256C97.0563 15.2256 97.911 15.474 98.6 15.971C99.2957 16.4613 99.8225 17.1338 100.18 17.9885C100.538 18.8432 100.717 19.8105 100.717 20.8905C100.717 21.9572 100.538 22.9212 100.18 23.7825C99.8225 24.6372 99.2891 25.313 98.5802 25.81C97.8712 26.3069 96.9933 26.5553 95.9465 26.5553ZM96.3142 24.4087C96.9569 24.4087 97.4737 24.2629 97.8646 23.9714C98.2621 23.6732 98.5504 23.2591 98.7292 22.7291C98.9148 22.199 99.0075 21.5862 99.0075 20.8905C99.0075 20.1882 98.9148 19.5753 98.7292 19.0519C98.5504 18.5218 98.2688 18.111 97.8845 17.8195C97.5002 17.5214 97.0033 17.3723 96.3937 17.3723C95.751 17.3723 95.221 17.5313 94.8036 17.8493C94.3862 18.1607 94.0781 18.5848 93.8793 19.1214C93.6805 19.6515 93.5812 20.2412 93.5812 20.8905C93.5812 21.5464 93.6772 22.1427 93.8694 22.6794C94.0681 23.2094 94.3696 23.6301 94.7738 23.9416C95.1779 24.253 95.6914 24.4087 96.3142 24.4087Z" fill="#99A0AE"/>
<path d="M84.0928 26.2581V15.5247H86.2097V18.1385L85.9513 17.8006C86.0838 17.4428 86.2593 17.1181 86.478 16.8266C86.7033 16.5285 86.9716 16.2833 87.283 16.0912C87.548 15.9123 87.8395 15.7731 88.1576 15.6738C88.4822 15.5678 88.8135 15.5048 89.1514 15.4849C89.4893 15.4584 89.8173 15.4717 90.1353 15.5247V17.7608C89.8173 17.6681 89.4496 17.6382 89.0322 17.6714C88.6214 17.7045 88.2503 17.8205 87.9191 18.0192C87.5878 18.1981 87.3161 18.4267 87.1041 18.705C86.8987 18.9832 86.7463 19.3013 86.6469 19.6591C86.5476 20.0102 86.4979 20.3912 86.4979 20.802V26.2581H84.0928Z" fill="#99A0AE"/>
<path d="M77.018 26.5553C75.9314 26.5553 74.9774 26.3201 74.1558 25.8497C73.3342 25.3793 72.6915 24.7267 72.2277 23.8919C71.7706 23.057 71.542 22.0963 71.542 21.0097C71.542 19.837 71.7673 18.82 72.2178 17.9586C72.6683 17.0907 73.2945 16.4182 74.0962 15.9411C74.8979 15.4641 75.8254 15.2256 76.8789 15.2256C77.992 15.2256 78.9362 15.4873 79.7113 16.0107C80.4932 16.5275 81.0729 17.2596 81.4506 18.2071C81.8282 19.1546 81.9707 20.271 81.8779 21.5563H79.5026V20.6818C79.496 19.5157 79.2906 18.6643 78.8865 18.1276C78.4823 17.5909 77.8462 17.3226 76.9783 17.3226C75.9977 17.3226 75.2689 17.6274 74.7918 18.2369C74.3148 18.8398 74.0763 19.7244 74.0763 20.8905C74.0763 21.9771 74.3148 22.8185 74.7918 23.4148C75.2689 24.0111 75.9646 24.3093 76.8789 24.3093C77.4686 24.3093 77.9754 24.1801 78.3995 23.9217C78.8301 23.6566 79.1614 23.2757 79.3933 22.7788L81.7587 23.4943C81.3479 24.4617 80.7118 25.2137 79.8505 25.7503C78.9958 26.287 78.0516 26.5553 77.018 26.5553ZM73.321 21.5563V19.7476H80.7052V21.5563H73.321Z" fill="#99A0AE"/>
<path d="M67.2935 26.2569V21.0889C67.2935 20.751 67.2703 20.3767 67.2239 19.9659C67.1775 19.5551 67.0682 19.1609 66.8959 18.7832C66.7303 18.3989 66.4785 18.0842 66.1406 17.8391C65.8093 17.5939 65.3588 17.4713 64.789 17.4713C64.4842 17.4713 64.1827 17.521 63.8846 17.6204C63.5864 17.7198 63.3148 17.8921 63.0696 18.1372C62.8311 18.3757 62.639 18.707 62.4932 19.1311C62.3475 19.5485 62.2746 20.0851 62.2746 20.7411L60.8534 20.1348C60.8534 19.2205 61.029 18.3923 61.3801 17.6502C61.7379 16.9082 62.2613 16.3185 62.9504 15.8812C63.6394 15.4373 64.4875 15.2153 65.4946 15.2153C66.2897 15.2153 66.9456 15.3478 67.4624 15.6129C67.9792 15.8779 68.39 16.2158 68.6948 16.6266C68.9995 17.0374 69.2248 17.4747 69.3706 17.9385C69.5163 18.4022 69.6091 18.8428 69.6489 19.2603C69.6952 19.671 69.7184 20.0056 69.7184 20.264V26.2569H67.2935ZM59.8496 26.2569V15.5234H61.9864V18.8528H62.2746V26.2569H59.8496Z" fill="#99A0AE"/>
<path d="M50.1541 31.0283L52.2213 25.3535L52.2611 27.0231L47.5801 15.5244H50.0746L53.394 24.0317H52.758L55.988 15.5244H58.3831L52.4002 31.0283H50.1541Z" fill="#99A0AE"/>
<path d="M41.1703 26.5559C40.1235 26.5559 39.1794 26.3737 38.3379 26.0093C37.5031 25.6449 36.814 25.1248 36.2707 24.4489C35.7341 23.7665 35.3928 22.9582 35.2471 22.024L37.7317 21.6463C37.9437 22.4944 38.3777 23.1503 39.0336 23.6141C39.6962 24.0779 40.4581 24.3098 41.3194 24.3098C41.8296 24.3098 42.3099 24.2303 42.7605 24.0713C43.211 23.9123 43.5754 23.6804 43.8537 23.3756C44.1386 23.0708 44.2811 22.6965 44.2811 22.2526C44.2811 22.0538 44.2479 21.8716 44.1817 21.7059C44.1154 21.5337 44.016 21.3813 43.8835 21.2488C43.7576 21.1163 43.592 20.997 43.3866 20.891C43.1878 20.7784 42.9559 20.6823 42.6909 20.6028L38.9938 19.5096C38.6758 19.4168 38.3313 19.2942 37.9602 19.1418C37.5958 18.9828 37.248 18.7675 36.9167 18.4958C36.5921 18.2176 36.3237 17.8664 36.1117 17.4424C35.9063 17.0117 35.8036 16.4817 35.8036 15.8522C35.8036 14.9313 36.0355 14.1594 36.4993 13.5366C36.9697 12.9072 37.5992 12.4367 38.3876 12.1253C39.1827 11.8139 40.0639 11.6615 41.0312 11.6682C42.0118 11.6748 42.8864 11.8438 43.6549 12.175C44.4235 12.4997 45.0662 12.9734 45.583 13.5962C46.0998 14.219 46.4642 14.971 46.6762 15.8522L44.1022 16.2995C43.9962 15.7959 43.7908 15.3686 43.486 15.0174C43.1878 14.6596 42.8201 14.388 42.3828 14.2025C41.9522 14.0169 41.4917 13.9176 41.0014 13.9043C40.5244 13.8977 40.0804 13.9706 39.6697 14.123C39.2655 14.2687 38.9375 14.4807 38.6858 14.759C38.4406 15.0373 38.318 15.3619 38.318 15.733C38.318 16.0841 38.424 16.3723 38.6361 16.5976C38.8481 16.8163 39.1098 16.9918 39.4212 17.1244C39.7392 17.2502 40.0606 17.3562 40.3852 17.4424L42.9493 18.1579C43.3005 18.2507 43.6947 18.3766 44.132 18.5356C44.5693 18.6946 44.99 18.9166 45.3942 19.2015C45.7983 19.4864 46.1296 19.8607 46.388 20.3245C46.653 20.7883 46.7855 21.378 46.7855 22.0935C46.7855 22.8356 46.6298 23.4882 46.3184 24.0514C46.0137 24.608 45.5996 25.0717 45.0761 25.4428C44.5527 25.8138 43.9531 26.0921 43.2773 26.2776C42.6081 26.4631 41.9058 26.5559 41.1703 26.5559Z" fill="#99A0AE"/>
<defs>
<clipPath id="clip0_176_18361">
<rect width="17.1206" height="28" fill="white" transform="translate(12.8301 7)"/>
</clipPath>
</defs>
</svg>
