<svg width="134" height="28" viewBox="0 0 134 28" fill="none" xmlns="http://www.w3.org/2000/svg">
<path d="M40.6152 11.9209C40.6153 13.0722 40.9074 13.9725 41.4912 14.6211C42.075 15.2696 42.8697 15.5937 43.875 15.5938C44.8968 15.5938 45.7003 15.2698 46.2842 14.6211C46.868 13.9562 47.1591 13.0559 47.1592 11.9209V4.71973H49.8604V12.3096C49.8604 14.0773 49.3161 15.496 48.2295 16.5664C47.1429 17.6368 45.6915 18.1729 43.875 18.1729C42.0749 18.1728 40.6315 17.6367 39.5449 16.5664C38.4585 15.4961 37.915 14.0772 37.915 12.3096V4.71973H40.6152V11.9209ZM65.7549 5.93555C66.9712 4.91394 68.4146 4.40336 70.085 4.40332C72.0636 4.40332 73.6934 5.06038 74.9746 6.37402C76.2721 7.67145 76.9209 9.30951 76.9209 11.2881C76.9208 13.2665 76.272 14.912 74.9746 16.2256C73.6934 17.523 72.0636 18.1719 70.085 18.1719C68.2524 18.1718 66.7035 17.5721 65.4385 16.3721L65.0977 17.8555H63.0547V0H65.7549V5.93555ZM85.6875 4.40332C87.6172 4.40336 89.2146 5.0515 90.4795 6.34863L90.7959 4.71875H92.8887V17.8555H90.6992L90.4316 16.25C89.1666 17.5312 87.585 18.1718 85.6875 18.1719C83.7251 18.1719 82.0871 17.5148 80.7734 16.2012C79.476 14.8875 78.8271 13.2495 78.8271 11.2871C78.8272 9.30863 79.476 7.67043 80.7734 6.37305C82.0871 5.0596 83.7252 4.40332 85.6875 4.40332ZM119.046 17.8564H116.248V10.2422L119.046 7.46875V17.8564ZM127.326 9.14746L130.318 4.71973H133.286L128.907 10.9229L133.627 17.8564H130.586L127.302 12.8447L123.993 17.8564H121.025L125.696 11.0693L121.39 4.71973H124.406L127.326 9.14746ZM60.9512 7.2002H59.54C57.3019 7.2002 56.1826 8.41693 56.1826 10.8496V17.8555H53.4824V4.71875H55.3066L55.7686 6.51953C56.7092 5.27076 58.0478 4.64648 59.7832 4.64648H60.9512V7.2002ZM100.126 4.71973H104.019V7.03027H100.15V12.9658C100.15 13.7443 100.362 14.3449 100.783 14.7666C101.205 15.1881 101.813 15.3994 102.607 15.3994H104.092V17.8555H102.097C101.14 17.8555 100.313 17.6698 99.6152 17.2969C98.9178 16.9239 98.3828 16.3878 98.0098 15.6904C97.6369 14.977 97.4502 14.1421 97.4502 13.1855V7.03027H95.0908V6.51953L99.6641 1.6543H100.126V4.71973ZM114.187 7.2002H112.775C110.537 7.2002 109.418 8.41693 109.418 10.8496V17.8555H106.718V4.71875H108.542L109.004 6.51953C109.945 5.27076 111.283 4.64648 113.019 4.64648H114.187V7.2002ZM69.8662 6.98145C69.0553 6.98145 68.3173 7.16804 67.6523 7.54102C67.0036 7.91403 66.4931 8.4337 66.1201 9.09863C65.7471 9.74731 65.5605 10.4773 65.5605 11.2881C65.5606 12.5041 65.9657 13.5256 66.7764 14.3525C67.6035 15.1796 68.6336 15.5938 69.8662 15.5938C71.0988 15.5937 72.1207 15.1878 72.9316 14.377C73.7424 13.55 74.1474 12.5204 74.1475 11.2881C74.1475 10.0556 73.7424 9.03352 72.9316 8.22266C72.1207 7.39555 71.0988 6.98145 69.8662 6.98145ZM85.8818 6.98145C85.071 6.98146 84.3329 7.16802 83.668 7.54102C83.0194 7.91396 82.5087 8.43291 82.1357 9.09766C81.7627 9.74631 81.5762 10.4763 81.5762 11.2871C81.5762 12.5196 81.9811 13.5499 82.792 14.377C83.6191 15.1878 84.6493 15.5928 85.8818 15.5928C87.1306 15.5928 88.1526 15.1878 88.9473 14.377C89.7582 13.5498 90.1641 12.5197 90.1641 11.2871C90.164 10.0385 89.758 9.00905 88.9473 8.19824C88.1526 7.38735 87.1307 6.98145 85.8818 6.98145ZM119.046 7.46875H116.248V4.69531H119.046V7.46875Z" fill="black"/>
<path d="M102.709 23.0215C103.081 23.0215 103.427 23.0939 103.745 23.2393C104.063 23.3846 104.329 23.5916 104.542 23.8594C104.76 24.1272 104.91 24.438 104.991 24.792H104.201C104.088 24.4742 103.899 24.2269 103.636 24.0498C103.372 23.8682 103.063 23.7773 102.709 23.7773C102.232 23.7774 101.838 23.9386 101.524 24.2607C101.211 24.5832 101.054 24.9946 101.054 25.4941C101.054 25.9889 101.211 26.3974 101.524 26.7197C101.838 27.0374 102.232 27.1962 102.709 27.1963C103.072 27.1963 103.388 27.1009 103.656 26.9102C103.924 26.7149 104.11 26.4492 104.215 26.1133H105.012C104.889 26.6717 104.619 27.1191 104.201 27.4551C103.783 27.7866 103.286 27.9531 102.709 27.9531C102.005 27.9531 101.42 27.7209 100.952 27.2578C100.489 26.7902 100.257 26.2001 100.257 25.4873C100.257 24.7744 100.489 24.1858 100.952 23.7227C101.42 23.2551 102.005 23.0216 102.709 23.0215ZM70.9912 23.0352C71.5089 23.0352 71.9135 23.1663 72.2041 23.4297C72.4946 23.6885 72.6396 24.0429 72.6396 24.4922H71.8633C71.8632 24.2653 71.7792 24.088 71.6113 23.9609C71.4479 23.8293 71.2364 23.7637 70.9775 23.7637C70.7278 23.7637 70.5186 23.8178 70.3506 23.9268C70.1871 24.0312 70.1055 24.1794 70.1055 24.3701C70.1055 24.4518 70.1262 24.5267 70.167 24.5947C70.2078 24.6626 70.2553 24.7193 70.3096 24.7646C70.364 24.8055 70.4459 24.8469 70.5547 24.8877C70.6637 24.9286 70.7555 24.9607 70.8281 24.9834C70.9052 25.0015 71.0163 25.0283 71.1611 25.0645C71.2744 25.0916 71.3586 25.1124 71.4131 25.126C71.4721 25.1396 71.5562 25.1649 71.665 25.2012C71.774 25.233 71.8589 25.2618 71.918 25.2891C71.977 25.3118 72.0519 25.3463 72.1426 25.3916C72.2333 25.437 72.3036 25.4829 72.3535 25.5283C72.4034 25.5737 72.4577 25.6303 72.5166 25.6982C72.5802 25.7664 72.6284 25.8388 72.6602 25.916C72.6919 25.9887 72.7195 26.0749 72.7422 26.1748C72.7649 26.2702 72.7754 26.3725 72.7754 26.4814C72.7754 26.9446 72.6121 27.3056 72.2852 27.5645C71.9583 27.8186 71.5452 27.9462 71.0459 27.9463C70.6871 27.9463 70.3711 27.882 70.0986 27.7549C69.8308 27.6277 69.6215 27.446 69.4717 27.21C69.322 26.9694 69.2471 26.6898 69.2471 26.3721H70.0371C70.0371 26.6262 70.1304 26.8287 70.3164 26.9785C70.5071 27.1238 70.7484 27.1963 71.0391 27.1963C71.3023 27.1962 71.5245 27.1329 71.7061 27.0059C71.8877 26.8742 71.9785 26.704 71.9785 26.4951C71.9785 26.4179 71.9647 26.3477 71.9375 26.2842C71.9148 26.2206 71.8745 26.1655 71.8154 26.1201C71.7611 26.0749 71.7066 26.0366 71.6523 26.0049C71.6024 25.9686 71.5244 25.9341 71.4199 25.9023C71.3202 25.8706 71.2383 25.8476 71.1748 25.834C71.1112 25.8158 71.0156 25.7915 70.8887 25.7598C70.748 25.728 70.641 25.7027 70.5684 25.6846C70.4958 25.6619 70.394 25.6296 70.2627 25.5889C70.1358 25.5435 70.0355 25.5008 69.9629 25.46C69.8948 25.4191 69.8131 25.364 69.7178 25.2959C69.6224 25.2232 69.549 25.1485 69.499 25.0713C69.4537 24.9896 69.4132 24.8917 69.377 24.7783C69.3407 24.6649 69.3223 24.538 69.3223 24.3975C69.3223 23.9706 69.4718 23.6362 69.7715 23.3955C70.0757 23.1548 70.4826 23.0352 70.9912 23.0352ZM39.7744 23.1025C40.074 23.1025 40.3466 23.1659 40.5918 23.293C40.8369 23.4201 41.0278 23.5996 41.1641 23.8311C41.3048 24.0626 41.375 24.3223 41.375 24.6084C41.3749 24.9306 41.2863 25.2162 41.1094 25.4658C40.9323 25.711 40.6965 25.8891 40.4014 25.998L41.5049 27.8711H40.626L39.6045 26.1064H38.6982V27.8711H37.915V23.1025H39.7744ZM46.7559 23.8379H44.7666V25.0781H46.5791V25.7998H44.7666V27.1279H46.8311V27.8711H43.9834V23.1025H46.7559V23.8379ZM53.5166 27.8711H52.6729L52.2568 26.835H50.1318L49.7227 27.8711H48.8916L50.8125 23.1025H51.5488L53.5166 27.8711ZM56.6318 27.1416H58.6143V27.8711H55.8486V23.1025H56.6318V27.1416ZM66.9092 23.8379H64.9199V25.0781H66.7324V25.7998H64.9199V27.1279H66.9844V27.8711H64.1367V23.1025H66.9092V23.8379ZM78.3594 23.8311H76.9561V27.8711H76.1797V23.8311H74.7764V23.1025H78.3594V23.8311ZM84.4043 27.8711H83.5605L83.1445 26.835H81.0195L80.6104 27.8711H79.7793L81.7002 23.1025H82.4365L84.4043 27.8711ZM89.4062 23.8311H88.0029V27.8711H87.2266V23.8311H85.8232V23.1025H89.4062V23.8311ZM94.5635 23.8379H92.5752V25.0781H94.3867V25.7998H92.5752V27.1279H94.6387V27.8711H91.792V23.1025H94.5635V23.8379ZM109.331 23.1025C109.631 23.1025 109.903 23.166 110.148 23.293C110.394 23.42 110.584 23.5997 110.721 23.8311C110.861 24.0626 110.932 24.3223 110.932 24.6084C110.932 24.9306 110.843 25.2162 110.666 25.4658C110.489 25.711 110.253 25.8891 109.958 25.998L111.062 27.8711H110.183L109.161 26.1064H108.255V27.8711H107.472V23.1025H109.331ZM116.222 26.3447L117.68 23.1025H118.456L119.226 27.8711H118.429L117.87 24.417L116.324 27.7959H116.126L114.573 24.417L114.015 27.8711H113.218L113.994 23.1025H114.764L116.222 26.3447ZM50.4043 26.1338H51.9844L51.1875 24.124L50.4043 26.1338ZM81.292 26.1338H82.8721L82.0752 24.124L81.292 26.1338ZM38.6982 25.3711H39.7266C39.8537 25.3711 39.9698 25.3527 40.0742 25.3164C40.1831 25.2801 40.2741 25.2282 40.3467 25.1602C40.4192 25.0922 40.4757 25.0102 40.5166 24.915C40.5574 24.8198 40.5781 24.715 40.5781 24.6016C40.5781 24.3791 40.4987 24.1974 40.3398 24.0566C40.1854 23.9113 39.9809 23.8379 39.7266 23.8379H38.6982V25.3711ZM108.255 25.3711H109.283C109.41 25.3711 109.526 25.3527 109.631 25.3164C109.74 25.2801 109.831 25.2281 109.903 25.1602C109.976 25.0921 110.033 25.0103 110.074 24.915C110.115 24.8198 110.135 24.715 110.135 24.6016C110.135 24.3791 110.055 24.1974 109.896 24.0566C109.742 23.9113 109.538 23.8379 109.283 23.8379H108.255V25.3711Z" fill="black" fill-opacity="0.64"/>
<path d="M9.39453 28.001L0 18.6064V0.046875H9.39453V28.001ZM18.792 28H9.39648V18.6055H18.792V28ZM28.1885 9.44043L18.7939 18.6055V0.0458984H28.1885V9.44043Z" fill="#00B481"/>
</svg>
