<svg width="126" height="42" viewBox="0 0 126 42" fill="none" xmlns="http://www.w3.org/2000/svg">
<g clip-path="url(#clip0_176_18345)">
<path fill-rule="evenodd" clip-rule="evenodd" d="M14.0278 30.2778C7.18403 24.2166 8.09159 14.377 14.9538 9.50122C19.7741 6.07936 27.1133 5.65799 31.7853 11.4923C35.0961 15.6272 35.3229 21.5727 33.2254 25.1612C31.9103 27.4023 28.8913 29.06 27.0438 26.8467C25.363 24.8371 27.2383 23.0544 27.8958 20.7068C30.2434 12.2934 18.598 6.33403 12.4627 14.428C9.33253 18.5583 9.50849 24.9251 14.0278 30.2778Z" fill="#99A0AE"/>
<path fill-rule="evenodd" clip-rule="evenodd" d="M35.4977 11.9219C42.2025 18.1405 41.068 27.9569 34.0947 32.6707C29.1957 35.9814 21.8519 36.2314 17.3141 30.2953C14.096 26.0816 14.008 20.1316 16.1889 16.5939C17.5549 14.3852 20.611 12.7924 22.4122 15.052C24.0467 17.0987 22.1251 18.8397 21.4166 21.1688C18.8792 29.5313 30.3811 35.7591 36.7016 27.8041C39.9243 23.7479 39.8966 17.3719 35.5023 11.9219H35.4977Z" fill="#99A0AE"/>
</g>
<path d="M109.21 31.8513L111.114 26.6244L111.15 28.1623L106.839 17.5713H109.136L112.194 25.407H111.608L114.583 17.5713H116.789L111.278 31.8513H109.21Z" fill="#99A0AE"/>
<path d="M106.053 27.458C105.4 27.58 104.759 27.6319 104.131 27.6136C103.508 27.6014 102.95 27.4885 102.456 27.2749C101.961 27.0552 101.586 26.7104 101.33 26.2405C101.104 25.8134 100.985 25.377 100.973 24.9315C100.96 24.486 100.954 23.9826 100.954 23.4211V14.8257H103.151V23.293C103.151 23.6897 103.154 24.0375 103.16 24.3365C103.173 24.6356 103.237 24.8797 103.353 25.0688C103.572 25.435 103.923 25.6394 104.405 25.6821C104.887 25.7249 105.437 25.7005 106.053 25.6089V27.458ZM99.1602 19.3019V17.5718H106.053V19.3019H99.1602Z" fill="#99A0AE"/>
<path d="M95.3076 16.0684V14.0454H97.5137V16.0684H95.3076ZM95.3076 27.4558V17.5696H97.5137V27.4558H95.3076Z" fill="#99A0AE"/>
<path d="M89.1598 27.7327C88.1406 27.7327 87.271 27.507 86.5509 27.0554C85.8308 26.5977 85.2785 25.9752 84.8941 25.188C84.5157 24.4007 84.3235 23.5098 84.3174 22.5151C84.3235 21.502 84.5218 20.605 84.9124 19.8238C85.309 19.0366 85.8705 18.4202 86.5967 17.9747C87.3229 17.5232 88.1864 17.2974 89.1872 17.2974C90.3101 17.2974 91.259 17.5811 92.0341 18.1487C92.8152 18.7101 93.3248 19.479 93.5628 20.4554L91.3658 21.0504C91.195 20.5195 90.9112 20.1076 90.5145 19.8147C90.1179 19.5156 89.6663 19.3661 89.1598 19.3661C88.5861 19.3661 88.1132 19.5034 87.7409 19.7781C87.3687 20.0466 87.0941 20.4188 86.9171 20.8948C86.7401 21.3708 86.6516 21.9109 86.6516 22.5151C86.6516 23.4549 86.8622 24.2146 87.2832 24.7944C87.7043 25.3741 88.3298 25.664 89.1598 25.664C89.7456 25.664 90.2064 25.5297 90.542 25.2612C90.8837 24.9927 91.1401 24.6052 91.3109 24.0987L93.5628 24.6021C93.2576 25.6091 92.7237 26.3841 91.9608 26.9272C91.198 27.4642 90.2643 27.7327 89.1598 27.7327Z" fill="#99A0AE"/>
<path d="M77.9127 27.7327C76.9241 27.7327 76.0606 27.51 75.3221 27.0645C74.5837 26.619 74.0101 26.0057 73.6012 25.2246C73.1985 24.4374 72.9971 23.5342 72.9971 22.5151C72.9971 21.4776 73.2046 20.5683 73.6195 19.7872C74.0345 19.0061 74.6112 18.3958 75.3496 17.9564C76.088 17.5171 76.9424 17.2974 77.9127 17.2974C78.9074 17.2974 79.774 17.5201 80.5124 17.9656C81.2508 18.4111 81.8244 19.0274 82.2333 19.8147C82.6422 20.5958 82.8466 21.4959 82.8466 22.5151C82.8466 23.5403 82.6391 24.4465 82.2242 25.2337C81.8153 26.0149 81.2416 26.6282 80.5032 27.0737C79.7648 27.5131 78.9013 27.7327 77.9127 27.7327ZM77.9127 25.664C78.7915 25.664 79.4444 25.3711 79.8716 24.7852C80.2988 24.1994 80.5124 23.4426 80.5124 22.5151C80.5124 21.557 80.2957 20.7941 79.8625 20.2266C79.4292 19.653 78.7793 19.3661 77.9127 19.3661C77.3207 19.3661 76.8325 19.5004 76.4481 19.7689C76.0697 20.0313 75.789 20.4005 75.6059 20.8765C75.4228 21.3464 75.3313 21.8926 75.3313 22.5151C75.3313 23.4732 75.5479 24.239 75.9812 24.8127C76.4206 25.3802 77.0644 25.664 77.9127 25.664Z" fill="#99A0AE"/>
<path d="M68.6025 27.4557V13.9995H70.8086V27.4557H68.6025Z" fill="#99A0AE"/>
<path d="M61.8973 27.7327C60.8965 27.7327 60.0177 27.5161 59.261 27.0828C58.5043 26.6495 57.9123 26.0484 57.4851 25.2795C57.0641 24.5106 56.8535 23.6257 56.8535 22.6249C56.8535 21.5447 57.061 20.608 57.476 19.8147C57.891 19.0152 58.4676 18.3958 59.2061 17.9564C59.9445 17.5171 60.7988 17.2974 61.7691 17.2974C62.7944 17.2974 63.664 17.5384 64.378 18.0205C65.0981 18.4965 65.6321 19.1708 65.9799 20.0435C66.3277 20.9162 66.459 21.9445 66.3735 23.1284H64.1857V22.3228C64.1796 21.2488 63.9905 20.4646 63.6182 19.9703C63.246 19.476 62.6601 19.2288 61.8607 19.2288C60.9575 19.2288 60.2862 19.5095 59.8468 20.071C59.4074 20.6263 59.1877 21.441 59.1877 22.5151C59.1877 23.5159 59.4074 24.2909 59.8468 24.8401C60.2862 25.3894 60.927 25.664 61.7691 25.664C62.3123 25.664 62.7791 25.545 63.1697 25.307C63.5663 25.0629 63.8715 24.712 64.0851 24.2543L66.2637 24.9134C65.8853 25.8043 65.2995 26.497 64.5061 26.9913C63.7189 27.4856 62.8493 27.7327 61.8973 27.7327ZM58.4921 23.1284V21.4624H65.2934V23.1284H58.4921Z" fill="#99A0AE"/>
<path d="M49.731 27.4589L45.5752 14.2773H47.8453L51.3238 25.3169L54.848 14.2773H57.1182L52.9623 27.4589H49.731Z" fill="#99A0AE"/>
<defs>
<clipPath id="clip0_176_18345">
<rect width="30.6393" height="28" fill="white" transform="translate(9.33008 7)"/>
</clipPath>
</defs>
</svg>
