<svg width="20" height="20" viewBox="0 0 20 20" fill="none" xmlns="http://www.w3.org/2000/svg">
<path d="M4 12.2501V7.37512C4 6.48002 4.35558 5.62157 4.98851 4.98864C5.62145 4.3557 6.47989 4.00012 7.375 4.00012C8.27011 4.00012 9.12855 4.3557 9.76148 4.98864C10.3944 5.62157 10.75 6.48002 10.75 7.37512V12.6251C10.75 13.1224 10.9475 13.5993 11.2992 13.9509C11.6508 14.3026 12.1277 14.5001 12.625 14.5001C13.1223 14.5001 13.5992 14.3026 13.9508 13.9509C14.3025 13.5993 14.5 13.1224 14.5 12.6251V7.62262C13.9994 7.44569 13.5774 7.09747 13.3087 6.63952C13.04 6.18156 12.9419 5.64335 13.0316 5.12003C13.1214 4.59671 13.3933 4.12196 13.7992 3.77972C14.2052 3.43747 14.719 3.24976 15.25 3.24976C15.781 3.24976 16.2948 3.43747 16.7008 3.77972C17.1067 4.12196 17.3786 4.59671 17.4684 5.12003C17.5581 5.64335 17.46 6.18156 17.1913 6.63952C16.9226 7.09747 16.5006 7.44569 16 7.62262V12.6251C16 13.5202 15.6444 14.3787 15.0115 15.0116C14.3785 15.6445 13.5201 16.0001 12.625 16.0001C11.7299 16.0001 10.8714 15.6445 10.2385 15.0116C9.60558 14.3787 9.25 13.5202 9.25 12.6251V7.37512C9.25 6.87784 9.05246 6.40093 8.70082 6.0493C8.34919 5.69767 7.87228 5.50012 7.375 5.50012C6.87772 5.50012 6.40081 5.69767 6.04917 6.0493C5.69754 6.40093 5.5 6.87784 5.5 7.37512V12.2501H7.75L4.75 16.0001L1.75 12.2501H4Z" fill="#005543"/>
</svg>
