<svg width="20" height="20" viewBox="0 0 20 20" fill="none" xmlns="http://www.w3.org/2000/svg">
<path d="M4.75 12.25V13.75C4.74988 14.1284 4.8928 14.4929 5.15012 14.7704C5.40744 15.0479 5.76013 15.2179 6.1375 15.2463L6.25 15.25H8.5V16.75H6.25C5.45435 16.75 4.69129 16.4339 4.12868 15.8713C3.56607 15.3087 3.25 14.5456 3.25 13.75V12.25H4.75ZM14.5 8.5L17.8 16.75H16.1838L15.283 14.5H12.2155L11.3163 16.75H9.70075L13 8.5H14.5ZM13.75 10.6638L12.8148 13H14.6838L13.75 10.6638ZM7 2.5V4H10V9.25H7V11.5H5.5V9.25H2.5V4H5.5V2.5H7ZM13.75 3.25C14.5456 3.25 15.3087 3.56607 15.8713 4.12868C16.4339 4.69129 16.75 5.45435 16.75 6.25V7.75H15.25V6.25C15.25 5.85218 15.092 5.47064 14.8107 5.18934C14.5294 4.90804 14.1478 4.75 13.75 4.75H11.5V3.25H13.75ZM5.5 5.5H4V7.75H5.5V5.5ZM8.5 5.5H7V7.75H8.5V5.5Z" fill="#005543"/>
</svg>
