<svg width="29" height="29" viewBox="0 0 29 29" fill="none" xmlns="http://www.w3.org/2000/svg">
<path d="M13.0587 14.2142L21.5356 5.7373L23.0627 7.26442L21.5356 8.79262L24.2075 11.4645L22.6804 12.9927L20.0074 10.3197L18.4803 11.8469L20.771 14.1375L19.2439 15.6657L16.9532 13.374L14.5858 15.7413C15.3207 16.8581 15.6154 18.2076 15.413 19.529C15.2106 20.8505 14.5254 22.0499 13.4899 22.8954C12.4544 23.7409 11.1422 24.1725 9.807 24.1066C8.47179 24.0408 7.20842 23.4822 6.26117 22.5389C5.31188 21.5931 4.74812 20.3282 4.67946 18.99C4.6108 17.6518 5.04215 16.3358 5.88966 15.2979C6.73718 14.26 7.94032 13.5743 9.26526 13.374C10.5902 13.1737 11.9423 13.4732 13.0587 14.2142V14.2142ZM12.3707 21.0107C12.6854 20.7131 12.9371 20.3554 13.1112 19.9589C13.2852 19.5623 13.378 19.1349 13.384 18.7019C13.39 18.2688 13.3092 17.839 13.1462 17.4378C12.9833 17.0365 12.7415 16.672 12.4353 16.3658C12.1291 16.0596 11.7646 15.8178 11.3634 15.6549C10.9621 15.492 10.5323 15.4111 10.0992 15.4171C9.66622 15.4232 9.2388 15.5159 8.84224 15.69C8.44568 15.864 8.08804 16.1158 7.79045 16.4304C7.20026 17.0415 6.87369 17.8599 6.88107 18.7094C6.88845 19.5589 7.2292 20.3716 7.82992 20.9723C8.43064 21.573 9.24327 21.9137 10.0928 21.9211C10.9423 21.9285 11.7607 21.6019 12.3718 21.0117L12.3707 21.0107Z" fill="#CACFD8"/>
</svg>
