<svg width="24" height="24" viewBox="0 0 24 24" fill="none" xmlns="http://www.w3.org/2000/svg">
<path d="M12.2144 10.0911V14.1574H17.9806C17.7274 15.4651 16.9676 16.5725 15.828 17.317L19.3053 19.9611C21.3313 18.1284 22.5001 15.4366 22.5001 12.2389C22.5001 11.4944 22.432 10.7784 22.3053 10.0912L12.2144 10.0911Z" fill="#4285F4"/>
<path d="M6.20973 13.9985L5.42547 14.5869L2.64941 16.7059C4.41242 20.1327 8.02583 22.5 12.2142 22.5C15.107 22.5 17.5323 21.5645 19.3051 19.9609L15.8278 17.3168C14.8732 17.9468 13.6557 18.3287 12.2142 18.3287C9.42842 18.3287 7.06158 16.4864 6.21411 14.0046L6.20973 13.9985Z" fill="#34A853"/>
<path d="M2.64928 7.29419C1.91879 8.70685 1.5 10.301 1.5 12C1.5 13.6991 1.91879 15.2932 2.64928 16.7059C2.64928 16.7153 6.21432 13.9949 6.21432 13.9949C6.00003 13.365 5.87337 12.6968 5.87337 11.9999C5.87337 11.303 6.00003 10.6349 6.21432 10.0049L2.64928 7.29419Z" fill="#FBBC05"/>
<path d="M12.2144 5.68089C13.7923 5.68089 15.1949 6.21542 16.3151 7.24634L19.3833 4.23957C17.5228 2.54052 15.1073 1.5 12.2144 1.5C8.02605 1.5 4.41242 3.85772 2.64941 7.29408L6.21434 10.005C7.0617 7.52315 9.42864 5.68089 12.2144 5.68089Z" fill="#EA4335"/>
</svg>
