<svg width="20" height="20" viewBox="0 0 20 20" fill="none" xmlns="http://www.w3.org/2000/svg">
<path d="M3.24999 7L7.75224 2.5H15.9985C16.4125 2.5 16.75 2.84125 16.75 3.244V16.756C16.7498 16.9534 16.6712 17.1426 16.5316 17.2821C16.3919 17.4216 16.2026 17.5 16.0052 17.5H3.99474C3.89625 17.4993 3.79885 17.4792 3.70812 17.4409C3.61739 17.4026 3.5351 17.3468 3.46594 17.2766C3.39678 17.2065 3.34212 17.1234 3.30506 17.0322C3.26801 16.9409 3.2493 16.8432 3.24999 16.7448V7ZM8.49999 4V7.75H4.74999V16H15.25V4H8.49999Z" fill="#99A0AE"/>
</svg>
