<svg width="284" height="159" viewBox="0 0 284 159" fill="none" xmlns="http://www.w3.org/2000/svg">
<g opacity="0.72">
<g filter="url(#filter0_ii_211_1292)">
<rect x="42.5833" y="33.3462" width="199.257" height="124.658" fill="url(#paint0_linear_211_1292)"/>
</g>
<g filter="url(#filter1_iii_211_1292)">
<path d="M42.9647 33.3462H242.221L269.981 85.5181C271.228 87.8615 269.53 90.6888 266.875 90.6888H17.1781C14.4977 90.6888 12.8018 87.8111 14.1004 85.4663L42.9647 33.3462Z" fill="#E4E4E4"/>
</g>
<path d="M218.026 15.2705H66.2113L42.9647 33.3459H242.221L218.026 15.2705Z" fill="url(#paint1_linear_211_1292)"/>
<path d="M66.2105 15.2705L42.9637 33.3459H66.2092L66.2105 15.2705Z" fill="#D1D1D1"/>
<path d="M257.894 0.41537L280.853 13.5099C282.118 14.2313 282.009 16.0894 280.668 16.6575L241.287 33.346L217.937 15.2707L256.384 0.304147C256.878 0.11175 257.433 0.152616 257.894 0.41537Z" fill="url(#paint2_linear_211_1292)"/>
<mask id="mask0_211_1292" style="mask-type:alpha" maskUnits="userSpaceOnUse" x="217" y="0" width="65" height="34">
<path d="M257.894 0.41537L280.853 13.5099C282.118 14.2313 282.009 16.0894 280.668 16.6575L241.287 33.346L217.937 15.2707L256.384 0.304147C256.878 0.11175 257.433 0.152616 257.894 0.41537Z" fill="url(#paint3_linear_211_1292)"/>
</mask>
<g mask="url(#mask0_211_1292)">
<rect width="104.861" height="66.3973" transform="matrix(0.92055 -0.390625 0.389974 0.920826 202.662 47.9868)" fill="#D9D9D9"/>
</g>
<path d="M26.0468 0.41537L3.09755 13.5041C1.83081 14.2266 1.94273 16.088 3.28689 16.6535L42.9647 33.346L66.0032 15.2707L27.5564 0.304147C27.0622 0.11175 26.5075 0.152616 26.0468 0.41537Z" fill="url(#paint4_linear_211_1292)"/>
<mask id="mask1_211_1292" style="mask-type:alpha" maskUnits="userSpaceOnUse" x="2" y="0" width="65" height="34">
<path d="M26.0468 0.41537L3.09755 13.5041C1.83081 14.2266 1.94273 16.088 3.28689 16.6535L42.9647 33.346L66.0032 15.2707L27.5564 0.304147C27.0622 0.11175 26.5075 0.152616 26.0468 0.41537Z" fill="url(#paint5_linear_211_1292)"/>
</mask>
<g mask="url(#mask1_211_1292)">
<rect width="104.861" height="66.3972" transform="matrix(0.920173 0.391513 -0.390861 0.92045 -19.5024 5.29785)" fill="#D9D9D9"/>
</g>
<path d="M217.937 15.2705L242.221 33.3459H217.938L217.937 15.2705Z" fill="#D1D1D1"/>
</g>
<defs>
<filter id="filter0_ii_211_1292" x="42.5834" y="33.3462" width="199.256" height="128.176" filterUnits="userSpaceOnUse" color-interpolation-filters="sRGB">
<feFlood flood-opacity="0" result="BackgroundImageFix"/>
<feBlend mode="normal" in="SourceGraphic" in2="BackgroundImageFix" result="shape"/>
<feColorMatrix in="SourceAlpha" type="matrix" values="0 0 0 0 0 0 0 0 0 0 0 0 0 0 0 0 0 0 127 0" result="hardAlpha"/>
<feMorphology radius="14.0725" operator="dilate" in="SourceAlpha" result="effect1_innerShadow_211_1292"/>
<feOffset dy="91.4712"/>
<feGaussianBlur stdDeviation="8.79531"/>
<feComposite in2="hardAlpha" operator="arithmetic" k2="-1" k3="1"/>
<feColorMatrix type="matrix" values="0 0 0 0 0.907568 0 0 0 0 0.907568 0 0 0 0 0.907568 0 0 0 1 0"/>
<feBlend mode="multiply" in2="shape" result="effect1_innerShadow_211_1292"/>
<feColorMatrix in="SourceAlpha" type="matrix" values="0 0 0 0 0 0 0 0 0 0 0 0 0 0 0 0 0 0 127 0" result="hardAlpha"/>
<feMorphology radius="7.03625" operator="dilate" in="SourceAlpha" result="effect2_innerShadow_211_1292"/>
<feOffset dy="66.8443"/>
<feGaussianBlur stdDeviation="1.75906"/>
<feComposite in2="hardAlpha" operator="arithmetic" k2="-1" k3="1"/>
<feColorMatrix type="matrix" values="0 0 0 0 0.961361 0 0 0 0 0.961361 0 0 0 0 0.961361 0 0 0 1 0"/>
<feBlend mode="multiply" in2="effect1_innerShadow_211_1292" result="effect2_innerShadow_211_1292"/>
</filter>
<filter id="filter1_iii_211_1292" x="13.6549" y="33.3462" width="256.743" height="57.3428" filterUnits="userSpaceOnUse" color-interpolation-filters="sRGB">
<feFlood flood-opacity="0" result="BackgroundImageFix"/>
<feBlend mode="normal" in="SourceGraphic" in2="BackgroundImageFix" result="shape"/>
<feColorMatrix in="SourceAlpha" type="matrix" values="0 0 0 0 0 0 0 0 0 0 0 0 0 0 0 0 0 0 127 0" result="hardAlpha"/>
<feOffset dy="-3.51812"/>
<feComposite in2="hardAlpha" operator="arithmetic" k2="-1" k3="1"/>
<feColorMatrix type="matrix" values="0 0 0 0 0.824235 0 0 0 0 0.824235 0 0 0 0 0.824235 0 0 0 1 0"/>
<feBlend mode="normal" in2="shape" result="effect1_innerShadow_211_1292"/>
<feColorMatrix in="SourceAlpha" type="matrix" values="0 0 0 0 0 0 0 0 0 0 0 0 0 0 0 0 0 0 127 0" result="hardAlpha"/>
<feOffset dy="-1.3193"/>
<feComposite in2="hardAlpha" operator="arithmetic" k2="-1" k3="1"/>
<feColorMatrix type="matrix" values="0 0 0 0 1 0 0 0 0 1 0 0 0 0 1 0 0 0 0.13 0"/>
<feBlend mode="normal" in2="effect1_innerShadow_211_1292" result="effect2_innerShadow_211_1292"/>
<feColorMatrix in="SourceAlpha" type="matrix" values="0 0 0 0 0 0 0 0 0 0 0 0 0 0 0 0 0 0 127 0" result="hardAlpha"/>
<feOffset dy="1.75906"/>
<feComposite in2="hardAlpha" operator="arithmetic" k2="-1" k3="1"/>
<feColorMatrix type="matrix" values="0 0 0 0 1 0 0 0 0 1 0 0 0 0 1 0 0 0 0.25 0"/>
<feBlend mode="normal" in2="effect2_innerShadow_211_1292" result="effect3_innerShadow_211_1292"/>
</filter>
<linearGradient id="paint0_linear_211_1292" x1="142.212" y1="33.3462" x2="142.212" y2="158.004" gradientUnits="userSpaceOnUse">
<stop offset="0.681688" stop-color="#E4E4E4"/>
<stop offset="1" stop-color="#E4E4E4" stop-opacity="0"/>
</linearGradient>
<linearGradient id="paint1_linear_211_1292" x1="142.593" y1="38.0206" x2="142.593" y2="15.2705" gradientUnits="userSpaceOnUse">
<stop stop-color="#D2D2D2"/>
<stop offset="1" stop-color="#E7E7E7"/>
</linearGradient>
<linearGradient id="paint2_linear_211_1292" x1="254.208" y1="-12.0969" x2="254.208" y2="33.3461" gradientUnits="userSpaceOnUse">
<stop stop-color="#F0F0F0"/>
<stop offset="1" stop-color="#E4E4E4"/>
</linearGradient>
<linearGradient id="paint3_linear_211_1292" x1="254.208" y1="-12.0969" x2="254.208" y2="33.3461" gradientUnits="userSpaceOnUse">
<stop stop-color="#F0F0F0"/>
<stop offset="1" stop-color="#E4E4E4"/>
</linearGradient>
<linearGradient id="paint4_linear_211_1292" x1="29.7325" y1="-12.0969" x2="29.7325" y2="33.3461" gradientUnits="userSpaceOnUse">
<stop stop-color="#F0F0F0"/>
<stop offset="1" stop-color="#E4E4E4"/>
</linearGradient>
<linearGradient id="paint5_linear_211_1292" x1="29.7325" y1="-12.0969" x2="29.7325" y2="33.3461" gradientUnits="userSpaceOnUse">
<stop stop-color="#F0F0F0"/>
<stop offset="1" stop-color="#E4E4E4"/>
</linearGradient>
</defs>
</svg>
