<svg width="32" height="32" viewBox="0 0 32 32" fill="none" xmlns="http://www.w3.org/2000/svg">
<path d="M5.02434 18.9648C5.02434 20.0339 5.25901 20.8548 5.56573 21.3514C5.96787 22.0018 6.56767 22.2774 7.17916 22.2774C7.96787 22.2774 8.68939 22.0816 10.0798 20.1586C11.1938 18.6172 12.5063 16.4536 13.3895 15.0972L14.8851 12.7993C15.9241 11.2034 17.1266 9.42926 18.5054 8.22673C19.631 7.24523 20.8452 6.69995 22.0672 6.69995C24.1188 6.69995 26.073 7.88885 27.5686 10.1186C29.2055 12.5607 30 15.6367 30 18.811C30 20.698 29.628 22.0846 28.9951 23.18C28.3836 24.2394 27.1918 25.2978 25.187 25.2978V22.2774C26.9036 22.2774 27.332 20.7 27.332 18.8947C27.332 16.3222 26.7322 13.4672 25.4109 11.4273C24.4732 9.98038 23.258 9.09625 21.9211 9.09625C20.4752 9.09625 19.3116 10.1868 18.0039 12.1313C17.3087 13.1644 16.5949 14.4234 15.7936 15.8441L14.9114 17.4069C13.1392 20.549 12.6904 21.2647 11.8043 22.4458C10.2512 24.514 8.92502 25.2978 7.17916 25.2978C5.10808 25.2978 3.79844 24.401 2.98734 23.0495C2.32522 21.9482 2 20.5033 2 18.8567L5.02434 18.9648Z" fill="#0081FB"/>
<path d="M4.38452 10.3319C5.77108 8.1946 7.77206 6.69995 10.0671 6.69995C11.3962 6.69995 12.7175 7.09333 14.0973 8.21991C15.6065 9.45166 17.2151 11.4799 19.2219 14.8226L19.9415 16.0222C21.6786 18.9161 22.6669 20.4049 23.2453 21.107C23.9892 22.0086 24.5101 22.2774 25.1869 22.2774C26.9035 22.2774 27.3319 20.7 27.3319 18.8947L29.9999 18.811C29.9999 20.698 29.6279 22.0846 28.995 23.18C28.3835 24.2394 27.1917 25.2978 25.1869 25.2978C23.9405 25.2978 22.8363 25.0271 21.6153 23.8752C20.6766 22.9911 19.5793 21.4205 18.7351 20.0086L16.2239 15.8139C14.9639 13.7087 13.8081 12.1391 13.1391 11.4283C12.4196 10.6639 11.4946 9.74085 10.0184 9.74085C8.82367 9.74085 7.80906 10.5792 6.95998 11.8616L4.38452 10.3319Z" fill="url(#paint0_linear_206_662)"/>
<path d="M10.0185 9.74085C8.82376 9.74085 7.80915 10.5792 6.96008 11.8616C5.75949 13.6737 5.02434 16.3728 5.02434 18.9648C5.02434 20.0339 5.25901 20.8548 5.56573 21.3514L2.98734 23.0495C2.32522 21.9482 2 20.5033 2 18.8567C2 15.8626 2.82181 12.7418 4.38462 10.3319C5.77118 8.1946 7.77215 6.69995 10.0672 6.69995L10.0185 9.74085Z" fill="url(#paint1_linear_206_662)"/>
<defs>
<linearGradient id="paint0_linear_206_662" x1="7.93954" y1="18.0924" x2="27.219" y2="19.0661" gradientUnits="userSpaceOnUse">
<stop stop-color="#0064E1"/>
<stop offset="0.4" stop-color="#0064E1"/>
<stop offset="0.83" stop-color="#0073EE"/>
<stop offset="1" stop-color="#0082FB"/>
</linearGradient>
<linearGradient id="paint1_linear_206_662" x1="6.38169" y1="20.2345" x2="6.38169" y2="13.1264" gradientUnits="userSpaceOnUse">
<stop stop-color="#0082FB"/>
<stop offset="1" stop-color="#0064E0"/>
</linearGradient>
</defs>
</svg>
