<svg width="28" height="28" viewBox="0 0 28 28" fill="none" xmlns="http://www.w3.org/2000/svg">
<foreignObject x="-12" y="-12" width="52" height="52"><div xmlns="http://www.w3.org/1999/xhtml" style="backdrop-filter:blur(6px);clip-path:url(#bgblur_0_211_1656_clip_path);height:100%;width:100%"></div></foreignObject><g data-figma-bg-blur-radius="12">
<rect width="28" height="28" rx="8" fill="#946CF3" fill-opacity="0.05"/>
<rect x="0.75" y="0.75" width="26.5" height="26.5" rx="7.25" stroke="#946CF3" stroke-opacity="0.15" stroke-width="1.5"/>
<path d="M12.1667 19.5V15.8333H9.16667C8.79848 15.8333 8.5 16.1318 8.5 16.5V18.8333C8.5 19.2015 8.79848 19.5 9.16667 19.5H12.1667ZM12.1667 19.5H15.8333M12.1667 19.5V12.8333C12.1667 12.4651 12.4651 12.1667 12.8333 12.1667H15.8333V19.5M15.8333 19.5H19.1667C19.3508 19.5 19.5 19.3508 19.5 19.1667V9.16667C19.5 8.79848 19.2015 8.5 18.8333 8.5H16.5C16.1318 8.5 15.8333 8.79848 15.8333 9.16667V19.5Z" stroke="#946CF3" stroke-width="1.5" stroke-linecap="square" stroke-linejoin="round"/>
</g>
<defs>
<clipPath id="bgblur_0_211_1656_clip_path" transform="translate(12 12)"><rect width="28" height="28" rx="8"/>
</clipPath></defs>
</svg>
