<svg width="29" height="29" viewBox="0 0 29 29" fill="none" xmlns="http://www.w3.org/2000/svg">
<path d="M11.7 18.8998C11.7 18.8998 18 19.7998 20.7 22.4998H21.6C22.0971 22.4998 22.5 22.0969 22.5 21.5998V16.1431C23.2764 15.9433 23.85 15.2385 23.85 14.3998C23.85 13.5611 23.2764 12.8563 22.5 12.6565V7.1998C22.5 6.70275 22.0971 6.2998 21.6 6.2998H20.7C18 8.9998 11.7 9.8998 11.7 9.8998H8.10005C7.10594 9.8998 6.30005 10.7057 6.30005 11.6998V17.0998C6.30005 18.0939 7.10594 18.8998 8.10005 18.8998H9.00005L9.90005 23.3998H11.7V18.8998ZM13.5 11.3949C14.115 11.2629 14.8748 11.0805 15.6954 10.8392C17.2058 10.3949 19.125 9.69516 20.7 8.61693V20.1827C19.125 19.1045 17.2058 18.4047 15.6954 17.9605C14.8748 17.7191 14.115 17.5367 13.5 17.4047V11.3949ZM8.10005 11.6998H11.7V17.0998H8.10005V11.6998Z" fill="#CACFD8"/>
</svg>
