<svg width="12" height="12" viewBox="0 0 12 12" fill="none" xmlns="http://www.w3.org/2000/svg">
<path fill-rule="evenodd" clip-rule="evenodd" d="M3.75 2C4.02614 2 4.25 2.22386 4.25 2.5V3H6C6.27614 3 6.5 3.22386 6.5 3.5C6.5 3.77614 6.27614 4 6 4H5.46267C5.35902 4.72768 5.04234 5.55972 4.54776 6.27536L5.44655 7.13958C5.64561 7.33098 5.65181 7.6475 5.46042 7.84655C5.26902 8.04561 4.9525 8.05181 4.75345 7.86042L3.89866 7.0385C3.41026 7.50181 2.80436 7.86298 2.08876 7.99206C1.817 8.04108 1.55696 7.86051 1.50794 7.58876C1.45892 7.317 1.63949 7.05696 1.91124 7.00794C2.38214 6.923 2.80811 6.68509 3.17694 6.34454L2.15345 5.36042C1.95439 5.16902 1.94819 4.8525 2.13958 4.65345C2.33098 4.45439 2.6475 4.44819 2.84655 4.63958L3.81537 5.57114C4.14373 5.05666 4.35807 4.48902 4.44947 4H1.5C1.22386 4 1 3.77614 1 3.5C1 3.22386 1.22386 3 1.5 3H3.25V2.5C3.25 2.22386 3.47386 2 3.75 2ZM8.25 4.5C8.45621 4.5 8.64126 4.62659 8.716 4.81878L10.466 9.31878C10.5661 9.57614 10.4386 9.86592 10.1812 9.966C9.92386 10.0661 9.63408 9.93859 9.534 9.68122L9.26908 9H7.23092L6.966 9.68122C6.86592 9.93859 6.57614 10.0661 6.31878 9.966C6.06141 9.86592 5.93391 9.57614 6.034 9.31878L7.784 4.81878C7.85874 4.62659 8.04379 4.5 8.25 4.5ZM7.61981 8H8.88019L8.25 6.37952L7.61981 8Z" fill="#99A0AE"/>
</svg>
